<svg xmlns="http://www.w3.org/2000/svg" viewBox="0 0 318 180"><title>fasttrac-logo-web</title><g id="24d0f010-b493-4503-b011-a11d39816532" data-name="Web Logo"><path d="M315.9,90.43v-.51h0v-.23h0v-.16h0v-.16h0v-.13h0v-.11h0V89h0v-.11h0v-.1h0v-.08h0v-.08h0v-.08h0V88.5h0v-.08h0v-.08h0v0h0v-.05h0v-.08h0v0h0v-.06h0v0h0v-.08h0v0h0v-.05h0v-.06h0v-.05l0,0h0v-.05h0v0h0v-.06l0,0h0v0h0v-.06l0,0h0v-.06l0,0h0v-.06l0,0h0v0l0,0h0v0l0,0h0v0l-.06,0h0v-.06l-.14-.13h0v-.05l-.13-.13h0v-.06a5.36,5.36,0,0,0-3.35-1.71l-.34,0h-.45l-.37,0A5.63,5.63,0,0,0,305,90.14v.71h0v.31h0v.21h0v.16h0v.16h0v.11h0v.13h0V92h0v.1h0v.11h0v.08h0v.08h0v.08h0v.08h0v0h0v.08h0v.08h0v0h0v0h0v.08h0v0h0V93h0v0h0v0h0v0h0v.06h0v0h0v0h0v.06h0l0,0v0h0v.06h0l0,0v.06h0v0h0l0,0v.06h0l0,0v.06h0l0,0v.06h0l.05,0V94h0l.05,0v.06h0l.1.1v.06h0l.13.13v0h0A5.32,5.32,0,0,0,310,96.17l.95,0v0l.23,0a5.6,5.6,0,0,0,4.72-5.57l0-.15ZM315,91a4.71,4.71,0,0,1-3.93,4.33l-.27,0v0l-.68,0a4.5,4.5,0,0,1-2.88-1.39h0v-.06l-.16-.16h0v0l-.1-.1h0v-.06l-.05,0h0v-.05l0,0h0v0l0,0h0v0l0,0h0v0h0v0l0,0h0v0h0V93h0V92.9l0,0h0v0h0v-.06h0v0h0v0h0v-.08h0v0h0v-.06h0V92.4h0v-.05h0v-.08h0v0h0v-.08h0v-.08h0V92h0v-.07h0v-.11h0v-.11h0v-.1h0V91.4h0v-.16h0V91h0v-.45h0V90.4a4.77,4.77,0,0,1,3.93-4.69l.18,0,.47,0,.43,0,.21,0a4.47,4.47,0,0,1,2.61,1.39v.06h0l.16.15v.06h0l.08.08v0h0l.05,0v0h0l0,0v.05h0l0,0v.05h0l0,0v0h0l0,0v0h0v0h0l0,0v0h0v.06h0v0h0v0h0v.05h0v.06h0v.05h0v0h0v0h0v.08h0v.06h0v.08h0v0h0v.08h0v.08h0V89h0v.07h0v.11h0v.11h0v.1h0v.13h0v.13h0v.19h0v.24h0Z" fill="#231f20"/><path d="M309.83,90.3v1.62a1.75,1.75,0,0,0,.06.6.41.41,0,0,0,.2.19,1.34,1.34,0,0,0,.55.08V93h-3v-.16a1.34,1.34,0,0,0,.55-.08.46.46,0,0,0,.2-.19,1.75,1.75,0,0,0,.06-.6V88.15a1.72,1.72,0,0,0-.06-.59.48.48,0,0,0-.2-.2,1.39,1.39,0,0,0-.55-.07v-.16h2.7a5.78,5.78,0,0,1,1.55.15,1.45,1.45,0,0,1,.79.54,1.4,1.4,0,0,1,.31.92,1.37,1.37,0,0,1-.46,1.06,1.89,1.89,0,0,1-.83.4l1.4,2a2.63,2.63,0,0,0,.39.47.73.73,0,0,0,.41.15V93h-1.83l-1.88-2.65Zm0-2.86V90h.25a2.84,2.84,0,0,0,.89-.11.87.87,0,0,0,.46-.39,1.39,1.39,0,0,0,.17-.75,1.34,1.34,0,0,0-.31-1,1.36,1.36,0,0,0-1-.32Z" fill="#231f20"/><path d="M233.89,0c-29.13,17-91.73,25.72-91.73,25.72L128.83,10.23C93.3,1.27,51.93,12.9,27.52,22h0L22.66,18.7l-7.56-.28-7.56,1.7L1,24.5l5.44,6.87,1.18,8.92s7.25,9.07,21.64,29.86,23.59,42.58,25,44.38,7.2,6,7.2,6l3.18,7.9,2.07,2.07L86.08,180l7.83-4.84L77,114.28c32-21,76.69-33.33,76.69-33.33v8c8.2,9.2,18,9.4,18,9.4,32.1,1.46,59.36-7.93,77.57-16,11.61-5.15,20.95-10.14,20.95-10.14C232.65,29.44,233.89,0,233.89,0Z" fill="#231f20"/><path d="M21.18,29l6,5.7,7.49,9.54,9.61-6.36,12.44-3.32-12-14.85C35.17,22.78,21.18,29,21.18,29Zm1.69,21.81L34.74,67.24l14.77-8.4L34.67,44.21l-8.26,3.11Zm80.06-9.61L88.23,26.4,73.74,28.31l-17,6.22c3.67,3.6,15.75,15.62,15.75,15.62l11.31-4.74Zm2.68,15.48L86.53,62.72,72.47,50.15,58.34,55,52.2,59.12,63.08,74.24l8.69-5.16,16.74-4.87c5.09,6,14.34,13.21,14.34,13.21l12.3-6.15,20.06-4.87L118.54,54.24ZM47,85.26l5.3,6.36L57,103.91l9-9.54,7.56-3.1c-5.15-7.85-10.52-17-10.52-17l-9,5.09Zm27.76,7,3.32,6.14,5.73,4.6,15.68-9.9,13.92-4L102.85,77.42,86.32,82.36ZM115,22.8,101.72,10.23,86.89,11.5,74,13.76,88.23,26.4l14.13-2.68Zm33,13.92s-6.14-7.42-12.29-11.66L122.78,22,115,22.8l17.31,14.06A63.07,63.07,0,0,1,148,36.72ZM135,51.2l11.24-.84c-6.57-4.67-15.69-12.72-15.69-12.72l-15.12.92-12.5,2.61,15.61,13.07Zm43.88,21.48-1.13-4.8-9.47-6.43-15.12,1.63L135.21,66.4,149,77.21l19.78-3.68Zm14.69-8.9,4.74,2.69-.14-1.91-3.11-1.77-28.9-12.43c-13,0-15,.56-15,.56l7.7,4.1,9.4,6.43L181.7,59.4Zm-24.3-15.33,8.27,3.89,8.69-2.12L180,42.37l-4.74-4.73-18.86,1.91Zm17.24-27.13-22,5.79,10.73,10.53c5.87-.78,19.15-4.66,19.15-4.66Zm43.31-8.55L226.43,8c-13.21,6.21-18.51,7.7-18.51,7.7l7.35,10.67L231.59,21ZM215.27,26.41A154.21,154.21,0,0,1,198.1,33l3.6,8.33,3.81,5s14.42-4.95,18-6.92A47.6,47.6,0,0,0,215.27,26.41ZM189.83,50.22l10.88,13.49L211,60.6l4.8-1.34L205.51,46.33Zm45.71,6L248,50.15c-4-5.09-9.75-14.35-9.75-14.35l-12.72,4.38s2,4.31,2.54,5.3,5.87,9.33,5.87,9.33l-5.16,2.61-9.18,2.34,8.33,12,13.92-5.87Zm21,6.57-11.87,4.6,7.2,8.76S263,72,263.73,71.63s3-1.56,3-1.56ZM226,87.66l11.45-4.59-9.54-11.3-11.3,4.8ZM202.12,75.3l-4.45,3,3,3,13.64-4.67L206,70.07Zm-5.37-2.12-3-.35-16,2.47,4.94,6.64L192,77.28Zm-9.32,13-1.7,4.66L192.44,97l10.67-1.62L209.26,93,198.1,84.34Zm-25.37-8.05,3.54,2.75,5.51-4.73-4,.49Zm1.63,5.3-2.83,3,2.76,2.55,8.76,4.8,3.11,1-1.7-6ZM6.46,31l0,0Z" fill="#fff"/><path d="M177.75,67.88h0c-5.34,1-18.71,3.68-20.18,4.08a101.36,101.36,0,0,0-9.47,4.54l.91.72,19.78-3.68,10.11-.85Z" fill="#c9cacc"/><polygon points="49.51 58.84 34.67 44.21 26.41 47.32 22.87 50.78 34.74 67.24 49.51 58.84" fill="#c9cacc"/><polygon points="31.32 39.94 34.67 44.21 37.58 42.29 31.32 39.94" fill="#c9cacc"/><polygon points="188.93 78.81 195.4 73.02 193.79 72.83 177.82 75.3 182.34 81.38 183.46 81.59 188.93 78.81" fill="#c9cacc"/><path d="M47,85.26l5.3,6.36L57,103.91l9-9.54,7.56-3.1c-5.15-7.85-10.52-17-10.52-17l-9,5.09Z" fill="#c9cacc"/><polygon points="167.15 76.64 163.79 77.62 168.21 78.64 171.11 76.15 167.15 76.64" fill="#c9cacc"/><path d="M105.32,65.77l-14.53-4.4-4.26,1.35-4.47-4-18.4-5.58L58.34,55,52.2,59.12,63.08,74.24l8.69-5.16,16.74-4.87c5.09,6,14.34,13.21,14.34,13.21l11.06-5.53Z" fill="#c9cacc"/><polygon points="74.73 92.25 78.05 98.4 83.78 103 99.46 93.1 113.38 89.08 102.86 77.42 86.32 82.36 74.73 92.25" fill="#c9cacc"/><polygon points="169.27 48.45 177.54 52.34 186.23 50.22 180.01 42.37 175.27 37.64 156.41 39.55 169.27 48.45" fill="#c9cacc"/><path d="M124.09,22.27l2.09,4.29,9.15,10a68.09,68.09,0,0,1,12.67.2s-6.14-7.42-12.29-11.66Z" fill="#c9cacc"/><polygon points="232.14 66.11 224.16 58.59 219.58 59.76 227.91 71.77 236.84 68.01 232.14 66.11" fill="#c9cacc"/><polygon points="206.01 70.07 202.12 75.3 197.67 78.27 200.64 81.23 214.28 76.57 206.01 70.07" fill="#c9cacc"/><polygon points="227.91 71.77 216.61 76.57 226 87.67 237.45 83.07 227.91 71.77" fill="#c9cacc"/><path d="M266.7,70.07l-.75-.54c-3.8,1-10.84,2.84-16.46,3.73l2.37,2.89S263,72,263.73,71.63,266.7,70.07,266.7,70.07Z" fill="#c9cacc"/><path d="M195.06,62.79l-28.9-12.43c-4.12,0-7.12.06-9.32.13l23.84,9.07,1-.16,11.87,4.38,4.74,2.69-.14-1.91Z" fill="#c9cacc"/><path d="M201.7,41.31l3.81,5s2.8-1,6.24-2.2l-3-4.39-5.68-4-4-.36Z" fill="#c9cacc"/><polygon points="200.71 63.71 211.03 60.6 215.83 59.26 205.51 46.33 189.83 50.22 200.71 63.71" fill="#c9cacc"/><path d="M170.33,32.8l4.94,4.84a134.83,134.83,0,0,0,13.8-3.16Z" fill="#c9cacc"/><polygon points="187.43 86.18 185.73 90.84 192.44 96.99 203.11 95.37 209.26 93.03 198.1 84.34 187.43 86.18" fill="#c9cacc"/><path d="M19.74,25.06l-8.6-3.18-4.09.92L5.63,25.06l3.68,4.55C11.59,28.54,15.16,26.94,19.74,25.06Z" fill="#f89c57"/><polygon points="91.04 176.94 70.54 122.61 66.73 124.21 87.83 178.92 91.04 176.94" fill="#f89c57"/><polygon points="83.02 85.68 118.59 85.68 118.59 97.55 97.47 97.55 97.47 107.17 115.51 107.17 115.51 118.32 97.47 118.32 97.47 140.87 83.02 140.87 83.02 85.68" fill="#ffc425" fill-rule="evenodd"/><path d="M136.89,124.91v14.24a16,16,0,0,1-2.93.37,13.24,13.24,0,0,1-10.81-5.17,21.33,21.33,0,0,1,0-25.78,13.27,13.27,0,0,1,10.65-5.28,13.42,13.42,0,0,1,11,5c2.64,3.35,4,7.8,4,13.44v17.09H137.37V122.62a6.58,6.58,0,0,0-1-3.74,2.81,2.81,0,0,0-2.46-1.37,3.09,3.09,0,0,0-2.4,1.23,4.79,4.79,0,0,0-1,3,4.49,4.49,0,0,0,.9,2.92,2.75,2.75,0,0,0,2.29,1.14,8,8,0,0,0,3.14-.85" fill="#ffc425" fill-rule="evenodd"/><path d="M173,104.43v14.63c-1.71,0-2.79.26-3.22.79a7,7,0,0,0-.86,3.48c-.48,6.67-3,11.45-7.36,14.32-1.45,1.4-4,2.06-7.75,2.06h-2V125.05h1a3.94,3.94,0,0,0,3.16-1.06,7.16,7.16,0,0,0,1.08-4,36.39,36.39,0,0,1,.82-7.38,11.84,11.84,0,0,1,2.48-4.41c2.11-2.55,5.09-3.79,8.86-3.79H173" fill="#ffc425" fill-rule="evenodd"/><path d="M186.15,91.61v12.82h4.64v14.63h-4.64a8.15,8.15,0,0,0,.87,4.38c.58.87,1.9,1.29,3.95,1.29v14.53c-.92,0-1.53.08-1.79.08a12.85,12.85,0,0,1-6.94-2.06,15.35,15.35,0,0,1-5.22-5.59c-1.61-3-2.45-7-2.45-11.89V91.61h11.58" fill="#ffc425" fill-rule="evenodd"/><path d="M97.47,141.58H83a.71.71,0,0,1-.71-.71V85.68A.71.71,0,0,1,83,85h35.57a.72.72,0,0,1,.72.72V97.54a.72.72,0,0,1-.72.72H98.19v8.19h17.32a.71.71,0,0,1,.71.72v11.15a.71.71,0,0,1-.71.72H98.19v21.83A.71.71,0,0,1,97.47,141.58Zm-13.73-1.43h13V118.32a.71.71,0,0,1,.71-.71h17.32v-9.73H97.47a.71.71,0,0,1-.71-.71V97.54a.71.71,0,0,1,.71-.71h20.41V86.39H83.74Z" fill="#231f20"/><path d="M134,140a13.73,13.73,0,0,1-11.19-5.36,21.78,21.78,0,0,1,0-26.4,13.78,13.78,0,0,1,11-5.46A13.94,13.94,0,0,1,145.27,108c2.75,3.49,4.14,8.12,4.14,13.75v17.09a.5.5,0,0,1-.49.5H137.36a.5.5,0,0,1-.37.33A16.3,16.3,0,0,1,134,140Zm-.13-36.23a12.87,12.87,0,0,0-10.27,5.09,20.82,20.82,0,0,0,0,25.16A12.8,12.8,0,0,0,134,139a13.48,13.48,0,0,0,2.44-.29V125.66a7.67,7.67,0,0,1-2.65.59,3.24,3.24,0,0,1-2.68-1.33,4.94,4.94,0,0,1-1-3.22,5.21,5.21,0,0,1,1.1-3.25A3.57,3.57,0,0,1,134,117a3.33,3.33,0,0,1,2.87,1.59,7.09,7.09,0,0,1,1,4v15.7h10.56v-16.6c0-5.41-1.32-9.83-3.93-13.14A13,13,0,0,0,133.83,103.79ZM134,118a2.59,2.59,0,0,0-2,1.06,4.2,4.2,0,0,0-.88,2.64,4,4,0,0,0,.78,2.61,2.28,2.28,0,0,0,1.91,1,7.61,7.61,0,0,0,2.94-.8.58.58,0,0,1,.18,0v-1.8a6.15,6.15,0,0,0-.86-3.47A2.36,2.36,0,0,0,134,118Z" fill="#231f20"/><path d="M153.85,140.2h-2a.5.5,0,0,1-.5-.49V125.05a.5.5,0,0,1,.5-.5h1a3.5,3.5,0,0,0,2.78-.87,6.67,6.67,0,0,0,1-3.7,37.7,37.7,0,0,1,.83-7.48,12.31,12.31,0,0,1,2.58-4.59c2.17-2.64,5.28-4,9.24-4H173a.5.5,0,0,1,.5.5v14.63a.51.51,0,0,1-.5.5c-2.12,0-2.68.42-2.83.6-.26.33-.61,1.15-.76,3.21-.48,6.74-3,11.68-7.54,14.67C160.37,139.49,157.73,140.2,153.85,140.2Zm-1.49-1h1.49c3.64,0,6.07-.62,7.41-1.92a.18.18,0,0,1,.07,0c4.27-2.81,6.67-7.5,7.13-13.94a7.17,7.17,0,0,1,1-3.76c.48-.6,1.48-.91,3.11-1V104.92H169.3a10.41,10.41,0,0,0-8.48,3.62,11.15,11.15,0,0,0-2.38,4.22,36.59,36.59,0,0,0-.8,7.27,7.74,7.74,0,0,1-1.19,4.27,4.36,4.36,0,0,1-3.55,1.24h-.54Z" fill="#231f20"/><path d="M189.18,139.83a13.19,13.19,0,0,1-7.2-2.13,15.6,15.6,0,0,1-5.39-5.77c-1.67-3.15-2.51-7.23-2.51-12.13V91.61a.49.49,0,0,1,.49-.49h11.58a.49.49,0,0,1,.49.49v12.32h4.15a.49.49,0,0,1,.49.5v14.63a.5.5,0,0,1-.49.5h-4.14a7,7,0,0,0,.78,3.6c.47.72,1.66,1.08,3.54,1.08a.5.5,0,0,1,.5.49v14.53a.49.49,0,0,1-.48.49l-1.25.06ZM175.07,92.11V119.8c0,4.74.8,8.66,2.39,11.66a14.7,14.7,0,0,0,5,5.41,12.25,12.25,0,0,0,6.67,2l.51,0,.79,0V125.22c-2-.07-3.25-.57-3.87-1.51a8.47,8.47,0,0,1-1-4.65.49.49,0,0,1,.5-.49h4.14V104.92h-4.14a.49.49,0,0,1-.5-.49V92.11Z" fill="#231f20"/><polygon points="219.92 101.84 219.92 138.1 206.87 138.1 206.87 101.84 197.8 101.84 197.8 85.71 228.94 85.71 228.94 101.84 219.92 101.84" fill="#e31b23" fill-rule="evenodd"/><path d="M249.06,99.18v16.3a7.52,7.52,0,0,0-2.72-.82c-1.52,0-2.32,1.71-2.32,5.09V138.1h-12.1v-21c0-5.59,1.21-10,3.59-13.4a11.14,11.14,0,0,1,9.6-5,23.78,23.78,0,0,1,3.95.53" fill="#e31b23" fill-rule="evenodd"/><path d="M268.81,122.67v15.82a16.13,16.13,0,0,1-3.08.43,13.68,13.68,0,0,1-11.32-5.75,22.58,22.58,0,0,1-4.56-14.37,22.75,22.75,0,0,1,4.59-14.27c3-4,6.78-5.85,11.18-5.85a13.72,13.72,0,0,1,11.55,5.51c2.77,3.72,4.24,8.67,4.24,15v19H269.28v-18a7.82,7.82,0,0,0-1-4.14,2.9,2.9,0,0,0-2.58-1.53,3.17,3.17,0,0,0-2.51,1.37,5.45,5.45,0,0,0-1.05,3.27,5.27,5.27,0,0,0,.95,3.27,2.83,2.83,0,0,0,2.39,1.26,7.82,7.82,0,0,0,3.3-1" fill="#e31b23" fill-rule="evenodd"/><path d="M305.25,119.51c3.93-.19,7.88-.34,11.84-.53-.32,6.12-1.95,10.92-4.88,14.53a13.18,13.18,0,0,1-10.7,5.41c-4.43,0-8.23-2-11.24-5.94a23.07,23.07,0,0,1-4.58-14.5,22.08,22.08,0,0,1,4.64-14c3-3.9,6.77-5.8,11.07-5.8a13.27,13.27,0,0,1,10,4.56c2.85,3.12,4.69,7.26,5.41,12.56l-11.95.55c-.92-1.61-2.06-2.4-3.32-2.4a3.06,3.06,0,0,0-2.58,1.34,5.47,5.47,0,0,0-1,3.46,5.63,5.63,0,0,0,1.06,3.51,3.24,3.24,0,0,0,2.71,1.39c1.56,0,2.75-1.37,3.51-4.11" fill="#e31b23" fill-rule="evenodd"/><path d="M219.92,138.59h-13a.49.49,0,0,1-.49-.49V102.34H197.8a.49.49,0,0,1-.49-.5V85.71a.49.49,0,0,1,.49-.5h31.14a.5.5,0,0,1,.5.5v16.13a.5.5,0,0,1-.5.5h-8.52V138.1A.49.49,0,0,1,219.92,138.59Zm-12.55-1h12.06V101.84a.49.49,0,0,1,.49-.49h8.53V86.2H198.3v15.15h8.57a.5.5,0,0,1,.5.49Z" fill="#231f20"/><path d="M244,138.59h-12.1a.49.49,0,0,1-.49-.49v-21c0-5.61,1.23-10.21,3.67-13.68a11.64,11.64,0,0,1,10-5.22,23.67,23.67,0,0,1,4,.53.49.49,0,0,1,.4.49v16.3a.49.49,0,0,1-.22.41.51.51,0,0,1-.48,0,6.76,6.76,0,0,0-2.51-.77c-1.5,0-1.82,2.5-1.82,4.6V138.1A.49.49,0,0,1,244,138.59Zm-11.6-1h11.11V119.75c0-3.71.95-5.59,2.81-5.59a6.71,6.71,0,0,1,2.23.56V99.59a20.69,20.69,0,0,0-3.46-.44,10.58,10.58,0,0,0-9.2,4.8c-2.32,3.3-3.49,7.71-3.49,13.11Z" fill="#231f20"/><path d="M265.73,139.41A14.13,14.13,0,0,1,254,133.47a23.13,23.13,0,0,1-4.66-14.67,23.36,23.36,0,0,1,4.69-14.57c3.05-4,6.94-6,11.57-6a14.21,14.21,0,0,1,11.94,5.71c2.89,3.87,4.35,9,4.35,15.25v19a.49.49,0,0,1-.5.49H269.29a.48.48,0,0,1-.38.39A16.84,16.84,0,0,1,265.73,139.41Zm-.11-40.24c-4.3,0-7.93,1.91-10.79,5.66a22.09,22.09,0,0,0-4.48,14,22.18,22.18,0,0,0,4.45,14.06,13.2,13.2,0,0,0,10.93,5.56,14.67,14.67,0,0,0,2.59-.33V123.44a7.37,7.37,0,0,1-2.81.68,3.35,3.35,0,0,1-2.8-1.47,5.81,5.81,0,0,1-1-3.56,6,6,0,0,1,1.15-3.56,3.66,3.66,0,0,1,2.91-1.58,3.38,3.38,0,0,1,3,1.77,8.28,8.28,0,0,1,1,4.4V137.6h11.14V119.14c0-6-1.4-11-4.15-14.66A13.27,13.27,0,0,0,265.62,99.17Zm.11,15.77a2.68,2.68,0,0,0-2.12,1.19,5,5,0,0,0-.95,3,4.83,4.83,0,0,0,.85,3,2.36,2.36,0,0,0,2,1.07,7.44,7.44,0,0,0,3.08-.9.49.49,0,0,1,.2,0v-2.06a7.33,7.33,0,0,0-.9-3.88A2.42,2.42,0,0,0,265.73,114.94Z" fill="#231f20"/><path d="M301.51,139.41c-4.65,0-8.56-2.06-11.63-6.13a23.73,23.73,0,0,1-4.69-14.8,22.64,22.64,0,0,1,4.75-14.33c3.09-4,6.94-6,11.46-6a13.72,13.72,0,0,1,10.38,4.72,23.06,23.06,0,0,1,5.54,12.82.55.55,0,0,1-.11.38.5.5,0,0,1-.36.18l-12,.55a.47.47,0,0,1-.45-.25c-.82-1.42-1.79-2.15-2.89-2.15a2.59,2.59,0,0,0-2.19,1.15,5,5,0,0,0-.9,3.16,5.12,5.12,0,0,0,.95,3.2,2.72,2.72,0,0,0,2.32,1.21c1.32,0,2.34-1.26,3-3.75a.49.49,0,0,1,.46-.36c2-.1,4-.19,6-.27l5.8-.26a.47.47,0,0,1,.37.14.49.49,0,0,1,.14.38c-.32,6.22-1.95,11.07-5,14.81A13.72,13.72,0,0,1,301.51,139.41Zm-.11-40.26c-4.2,0-7.79,1.88-10.68,5.61a21.66,21.66,0,0,0-4.54,13.72,22.45,22.45,0,0,0,4.49,14.2c2.87,3.81,6.52,5.74,10.84,5.74a12.74,12.74,0,0,0,10.31-5.22c2.82-3.47,4.37-7.95,4.74-13.7l-5.25.23-5.68.26c-.84,2.74-2.14,4.13-3.89,4.13a3.74,3.74,0,0,1-3.11-1.6,6.09,6.09,0,0,1-1.15-3.8,5.9,5.9,0,0,1,1.11-3.76,3.53,3.53,0,0,1,3-1.53c1,0,2.37.42,3.59,2.38l11.11-.51a21.82,21.82,0,0,0-5.2-11.75A12.78,12.78,0,0,0,301.4,99.15Z" fill="#231f20"/></g></svg>