<svg xmlns="http://www.w3.org/2000/svg" viewBox="0 0 81.49 32.85"><title>fastpoints-v2</title><g id="41e7e192-12e3-4e63-8400-daade9076c7f" data-name="Layer 2"><g id="6a1424b5-147a-4bba-896b-630a91aa2d5b" data-name="Layer 1"><path d="M0,18.39H5.39c3.42,0,7.26,1,7.26,5.05,0,3.66-3.07,5.14-6.59,5.14h-.2v4.05H0ZM6,25c1,0,1.47-.53,1.47-1.2S7,22.56,6,22.56H5.86V25Z" fill="#231f20"/><path d="M21.54,18.17c4.46,0,7.94,3.21,7.94,7.34S26,32.85,21.54,32.85s-7.95-3.21-7.95-7.34S17.07,18.17,21.54,18.17Zm0,9.64a2.21,2.21,0,1,0-2.21-2.2A2.2,2.2,0,0,0,21.54,27.81Z" fill="#231f20"/><path d="M30.89,18.39h5.86V32.63H30.89Z" fill="#231f20"/><path d="M38.48,18.39h5.33L48,24.47l0,0V18.39h5.27V32.63H48l-4.19-6.08,0,0v6.06H38.48Z" fill="#231f20"/><path d="M58.82,23.23h-4V18.39h13.8v4.84h-4v9.4H58.82Z" fill="#231f20"/><path d="M70.22,26.85a10,10,0,0,0,4.69,1.69c.59,0,.72-.24.72-.47s-.17-.4-.43-.46a8.76,8.76,0,0,1-4.13-1.67,3.74,3.74,0,0,1-1.26-3c0-2.85,2.2-4.8,5.8-4.8a12.36,12.36,0,0,1,5.08,1.12V24a11.16,11.16,0,0,0-4.31-1.26c-.57,0-.73.21-.73.43s.22.41.46.49a10.08,10.08,0,0,1,4,1.52,3.73,3.73,0,0,1,1.43,3.06c0,2.74-2.2,4.65-5.94,4.65a12.75,12.75,0,0,1-5.33-1.16Z" fill="#231f20"/><path d="M33.31,6.26H32.08L30.54,8.15l0,0h2.67V8.12C33.21,7.51,33.25,6.89,33.31,6.26Z" fill="none"/><path d="M33.42,4.58l-.88,1.1h.82c0-.37.07-.74.1-1.1Z" fill="none"/><path d="M48.14,3a3.39,3.39,0,0,0-1,.16h2.14A4.59,4.59,0,0,0,48.14,3Z" fill="none"/><polygon points="28.98 10.03 33.05 10.03 33.13 8.76 30.03 8.76 28.98 10.03" fill="none"/><polygon points="19.71 3.76 16.22 3.76 15.36 5.68 18.85 5.68 19.71 3.76" fill="#ed1c24"/><polygon points="27.12 1.26 17.33 1.26 16.48 3.19 26.25 3.19 27.12 1.26" fill="#ed1c24"/><polygon points="27.57 0.24 17.79 0.24 17.59 0.69 27.37 0.69 27.57 0.24" fill="#ed1c24"/><polygon points="23.85 6.7 18.4 6.7 18.59 6.26 15.11 6.26 14.25 8.19 23.19 8.19 23.85 6.7" fill="#ed1c24"/><polygon points="10.73 16.09 14.22 16.09 17.1 9.59 22.57 9.59 22.94 8.76 14 8.76 10.73 16.09" fill="#ed1c24"/><polygon points="36.87 3.19 36.96 1.26 32.77 1.26 31.15 3.19 36.87 3.19" fill="#ed1c24"/><polygon points="37.01 0.24 33.62 0.24 33.25 0.69 36.99 0.69 37.01 0.24" fill="#ed1c24"/><polygon points="33.05 10.03 28.98 10.03 30.03 8.76 26.48 8.76 20.33 16.09 23.98 16.09 26.74 12.77 32.89 12.77 32.68 16.09 36.27 16.09 36.61 8.76 33.13 8.76 33.05 10.03" fill="#ed1c24"/><path d="M32.08,6.26H28.57L27,8.18H30.5l0,0Z" fill="#ed1c24"/><path d="M33.31,6.26c-.06.63-.1,1.25-.14,1.86v.06h3.47l.09-1.92Z" fill="#ed1c24"/><path d="M33.42,4.58h0c0,.36-.07.73-.1,1.1h3.4l.09-1.92H30.67L29.05,5.68h3.49Z" fill="#ed1c24"/><path d="M52.17,4.82l.47-1.06h-2A7.48,7.48,0,0,1,52.17,4.82Z" fill="#ed1c24"/><path d="M43,3.18h4.16a3.39,3.39,0,0,1,1-.16,4.59,4.59,0,0,1,1.13.16h3.62l.81-1.8a2.12,2.12,0,0,0-.2-.12H45A7.33,7.33,0,0,0,43,3.18Z" fill="#ed1c24"/><path d="M46.68,6.26H41.93a2.65,2.65,0,0,0,.87,1.92h6.83a7.58,7.58,0,0,0-1.77-1.26Z" fill="#ed1c24"/><path d="M44.32,9.26c1.46.86,2.61,1.23,2.29,2.39a2.2,2.2,0,0,1-.94,1.25,2.93,2.93,0,0,1-1.61.44,6.11,6.11,0,0,1-4.38-2.19l-1.61,3.61A8.28,8.28,0,0,0,43,16.33,8.05,8.05,0,0,0,47.41,15a6.82,6.82,0,0,0,2.85-3.85,3,3,0,0,0-.2-2.43H43.52C43.77,8.93,44,9.1,44.32,9.26Z" fill="#ed1c24"/><path d="M42.06,5.1a4.71,4.71,0,0,0-.1.58h4a1,1,0,0,1-.23-1,2.27,2.27,0,0,1,.53-.9H42.62A6.24,6.24,0,0,0,42.06,5.1Z" fill="#ed1c24"/><path d="M49.23,0A8,8,0,0,0,46,.68h6.42A8.08,8.08,0,0,0,49.23,0Z" fill="#ed1c24"/><polygon points="57.45 8.19 60.93 8.19 61.79 6.26 58.31 6.26 57.45 8.19" fill="#ed1c24"/><polygon points="55.48 1.26 54.62 3.19 68.21 3.19 69.08 1.26 55.48 1.26" fill="#ed1c24"/><polygon points="53.94 16.09 57.42 16.09 60.68 8.76 57.2 8.76 53.94 16.09" fill="#ed1c24"/><polygon points="69.53 0.24 55.93 0.24 55.73 0.69 69.33 0.69 69.53 0.24" fill="#ed1c24"/><polygon points="58.56 5.68 62.04 5.68 62.9 3.76 59.42 3.76 58.56 5.68" fill="#ed1c24"/></g></g></svg>