<svg xmlns="http://www.w3.org/2000/svg" viewBox="0 0 318 180"><title>fast_trac-logo-2_2</title><g id="de6e50dd-2b02-4623-8e8e-98014eae690d" data-name="Fast Trac Logo 4"><g id="e056c7f6-dc51-451b-ba82-1bb7fa215d67" data-name="Flag"><path d="M195.87,57c-27.78,5.38-79.76-5.08-79.76-5.08l-6.26-16C84.2,19,48.22,16.72,26.37,17.16l-2.93-4-5.91-2.32-6.46-.75L4.68,11.78l2.4,7L5.54,26.12s3.22,9.19,8.85,29.64S21.25,96,21.87,97.84s4,6.75,4,6.75l.32,7.13,1.07,2.22L30,142.72h1.7L29.06,109l3.46-.21,2.39,34h2.78L39.94,104c31.17-7.75,70-5.11,70-5.11l-2.22,6.33c3.94,9.56,11.65,12.44,11.65,12.44,25,10.06,49.2,10.19,65.85,8.85,10.63-.86,19.41-2.22,19.41-2.22C186.72,80,195.87,57,195.87,57Zm-8.12,4.27L189.11,66l-.89,7-14.41-.27L171,62.22S175.56,62.51,187.75,61.26ZM139,70.52l-5.57-11.31,19,1.52,3,11.42s-2-.11-4.66-.3h0q-3.18-.19-6.34-.56c-2-.22-4-.47-5.38-.76H139l2.45,5.06,2.73,7.89v0l-1.82-.18-5.65-.55-5.47-5.37-7.72-10.62L139,70.53h0ZM120.86,75.6h0l1,.31c1.37.44,3.07,1,5.16,1.73l.16.05,1.12.4,19.44,17.86,2,2.26-.42,1.55h0l-3-3.45-8.18-6.76-.35-.06-.49-.09h0l-10.35-1.94-5.66-7.7-5-5.38A28.43,28.43,0,0,1,120.86,75.6ZM61.21,35l12,2.5L65.46,23.53l10.83,1.78,12.09,3.11,7,13.64,6.38,1.53,1,.61v0L107,46.9l4.22,2.7c3.7,5.06,6.5,12.64,6.5,12.64l0,0,0,.05a57.42,57.42,0,0,0-10-3.67v0q-1.23-.32-2.46-.57L95.41,42.06,85.15,39.28l-11.93-1.8,7.53,15.8-16.32-2-10.27.61S47.93,39.05,46,35.18ZM9.84,18.13,8.19,13.51l1.75-1.4,3.49.41,5.93,4.9C15.21,17.64,11.94,17.92,9.84,18.13Zm4.85,20.55h0v0l3.76-1.75,7.39-.17-3.27-9.61-3.17-6.18s12.8-1,21.21-.82L46,35.2l-10.77-.82-9.35,2.37,7.68,15.68h0L19.53,55ZM36.76,85.13,27,90.19l-.32-11-2.43-6.51,7.21-2.72L40,68.4s1.71,8.73,3.61,16.38Zm26.87,8.29L48.47,96.91h0l-3.26-5.23-.92-5.79,11.92-4.62,14.46.68h0L73,87.47l2.8,6.64Zm17.3-12.79L70.64,81.94S65.31,73.66,63,67.5l-14.61-.79L40,68.39l-4.42-15,6-1.56h4.72l0,0,7.77.05,5.21,9.44h0l2.43,4.41,3.75.11h0l13,.4,10.91,1.66L80.76,53.26l10.62,1.4,12.23,3.46s5,8.91,8.89,14.43l-9.13-2.45L89.49,67.94l9.83,14.25L82.08,80.48l-1.15.15Zm40.22,33.55-5.6-6.23-1.48-2.79,3.07-1.59,6.51,7-.31,5.22ZM125,99.87l-3,1.17h0l-2.69,1-2-3.16,4.41.22,3.31.72Zm-1.12-2.71-16.68-2.58-.16-.26L99.32,82.19l15.13,2.35,12.42,2.9,5.72,7.72-.43,4.13Zm8.68,10.51L130.53,101l13.35,2.48h0l1.22.6h0l1,.5-4.9,1.93-3.66.47-4.29.57,0,0Zm18,16.15-4.14.11L145,124l-8.9-1.67-3.6-6.74,2.64-3.22,8.95,1.5,6.44,10h0ZM147,112.15l-1.54-3.21h0v0l4.35-1.12,4.52-3.07h0l4.74,7.44h0l0,0Zm14-13.52-9-.4-4.87-13.7,13.5,1.27-1.63-5-.06-.82-.37-4.64,0,0-.15-2.16a128.06,128.06,0,0,0,15.42-.45,39.72,39.72,0,0,1,2.92,12.58c-3.38.56-16.17.48-16.17.48l4.58,13.1Zm18.38,13-8.11.5,4.41,11.59-10.34.47L161,112.82l10.28-.66L168,100.34l3.95.34h0l4,.35,4.8-.64s-1.9-8.08-2-9-.55-4.9-.55-4.9l11.29.06s2,8.92,3.74,14.06L181.58,102l2.31,9.41-4.56.28ZM199.54,122c-1.21.1-10.56.28-10.56.28h0l-1.07-2.94h0l-2.19-6,10.68-.35,6,8.59-2.8.41Z" fill="#231f20"/><polygon points="154.35 104.73 149.83 107.8 154.35 104.74 154.35 104.73" fill="#fff"/><polygon points="144.13 113.84 150.54 123.8 150.57 123.8 144.13 113.84" fill="#fff"/><polygon points="54.15 51.92 46.38 51.87 59.36 61.36 54.15 51.92" fill="#fff"/><path d="M64.43,51.31l16.32,2-7.53-15.8-12-2.5L46,35.18c1.9,3.87,8.13,16.74,8.13,16.74Z" fill="#fff"/><polygon points="147.01 112.08 145.49 108.94 145.47 108.94 147.01 112.15 159.11 112.23 159.07 112.18 147.01 112.08" fill="#fff"/><polygon points="136.14 122.29 132.54 115.56 136.14 122.3 145.04 123.97 146.42 123.93 145.04 123.97 136.14 122.29" fill="#fff"/><polygon points="130.59 101.06 143.9 103.53 143.88 103.52 130.53 101.04 132.6 107.67 133.27 107.58 132.48 107.13 130.59 101.06" fill="#fff"/><polygon points="137.6 107.03 141.26 106.56 146.16 104.63 145.13 104.13 138.41 106.92 137.6 107.03" fill="#fff"/><polygon points="95.41 42.06 88.38 28.42 76.29 25.32 65.46 23.53 73.22 37.48 85.15 39.28 95.41 42.06" fill="#fff"/><path d="M189,122.27s9.35-.18,10.56-.28c-1.2.1-10.42.28-10.56.28Z" fill="#fff"/><path d="M196.39,113l-10.68.35,2.19,6c4.7.85,10.78,1.35,14.07,1.61l.44.63s-2.1.33-2.78.42l2.8-.41Z" fill="#fff"/><path d="M181.58,102l11.55-1.35c-1.75-5.14-3.74-14.06-3.74-14.06l-11.29-.06s.39,4,.55,4.9,2,9,2,9l-4.8.64-4-.35,4.22,8.16,3.19,2.8,4.56-.28Z" fill="#fff"/><path d="M173.8,72.74a128.06,128.06,0,0,1-15.42.45l.15,2.16,3,1.37L165,81.47l1.15,4.31c-3,0-5.55,0-5.55,0l-1.63-5-.06-.8.06.82,1.63,5s12.79.08,16.17-.48A39.72,39.72,0,0,0,173.8,72.74Z" fill="#fff"/><path d="M24.4,32.42,28.7,36l-2.83.72,7.69,15.7h0L25.88,36.75l9.35-2.37L46,35.2,40.62,20.12c-8.41-.22-21.21.82-21.21.82l3.17,6.18,3.27,9.61h0Z" fill="#fff"/><polygon points="14.69 38.68 19.53 54.98 14.71 38.67 14.69 38.68" fill="#fff"/><polygon points="75.74 94.09 63.6 93.41 48.46 96.9 48.47 96.91 63.63 93.42 75.76 94.11 72.96 87.47 75.74 94.09" fill="#fff"/><polygon points="121.73 99.15 117.32 98.93 119.36 102.08 122.05 101.04 118.83 99 121.77 99.16 125.04 99.87 125.04 99.87 121.73 99.15" fill="#fff"/><path d="M127.15,77.68l1.12.4Z" fill="#fff"/><polygon points="99.32 82.19 89.49 67.94 78.58 66.28 65.54 65.88 75.83 73.4 80.93 80.63 82.08 80.48 99.32 82.19" fill="#fff"/><path d="M121.83,75.9c1.37.44,3.06,1,5.16,1.73C124.9,76.9,123.2,76.34,121.83,75.9Z" fill="#fff"/><polygon points="142.38 83.35 144.2 83.53 144.19 83.48 144.2 83.53 142.38 83.35" fill="#fff"/><polygon points="137.71 89.48 138.06 89.54 138.05 89.54 137.71 89.48" fill="#fff"/><path d="M126.86,87.44l10.35,1.94L120.86,75.6a28.43,28.43,0,0,0-4.62-1.24l5,5.38Z" fill="#fff"/><path d="M117.65,62.22l0,0s-2.8-7.58-6.5-12.64L107,46.9l4.21,2.73A61.92,61.92,0,0,1,117.65,62.22Z" fill="#fff"/><path d="M107.68,58.57l-4.46-10.43-.46-3.94-1-.61-6.38-1.53L105.22,58Q106.45,58.26,107.68,58.57Z" fill="#fff"/><polygon points="139.01 70.53 139.01 70.53 123.54 66.81 131.26 77.43 123.55 66.81 139.01 70.53" fill="#fff"/><polygon points="149.25 99.74 149.26 99.75 149.68 98.2 147.71 95.94 149.66 98.19 149.25 99.74" fill="#fff"/><polygon points="70.64 81.94 56.18 81.26 70.64 81.94 70.64 81.94" fill="#fff"/><path d="M144.48,71.3q-2.7-.31-5.38-.76C140.5,70.83,142.43,71.08,144.48,71.3Z" fill="#fff"/><path d="M188.22,73l.89-7-1.36-4.71c-12.19,1.25-16.8,1-16.8,1l2.86,10.49Z" fill="#fff"/><path d="M112.5,72.55c-3.91-5.52-8.89-14.43-8.89-14.43L91.38,54.66l-10.62-1.4,8.73,14.68,13.88,2.16Z" fill="#fff"/><path d="M115.48,92.79c1.27.1,12.6,1.68,17.11,2.37l-5.72-7.72-12.42-2.9L99.32,82.19l7.76,12.13-.36-.56Q111.07,93.06,115.48,92.79Z" fill="#fff"/><path d="M150.79,71.85c2.67.19,4.66.3,4.66.3l-3-11.42-19-1.52L139,70.52h0l-2.56-5.2Z" fill="#fff"/><polygon points="117.14 103.57 114.07 105.17 115.55 107.95 121.15 114.18 123.34 115.83 123.66 110.61 117.14 103.57" fill="#fff"/><path d="M132.59,95.16c-4.51-.69-15.84-2.27-17.11-2.37q-4.41.27-8.76,1l.36.56.16.26,16.68,2.58,8.24,2.13Z" fill="#c9cacc"/><polygon points="33.56 52.43 25.87 36.73 25.85 36.73 18.46 36.9 14.7 38.65 14.71 38.67 19.53 54.98 33.56 52.43 33.56 52.43" fill="#c9cacc"/><polygon points="24.4 32.42 25.87 36.73 28.7 36.01 24.4 32.42" fill="#c9cacc"/><polygon points="137.6 107.03 138.41 106.92 145.13 104.13 145.14 104.13 143.92 103.53 143.9 103.53 130.59 101.06 132.48 107.13 133.27 107.58 133.31 107.6 137.6 107.03" fill="#c9cacc"/><path d="M31.45,69.93l-7.21,2.72,2.43,6.51.32,11,9.77-5.06,6.84-.35C41.7,77.13,40,68.4,40,68.4Z" fill="#c9cacc"/><polygon points="118.83 99 122.05 101.04 122.05 101.04 125.04 99.87 125.04 99.87 121.77 99.16 118.83 99" fill="#c9cacc"/><path d="M65.54,65.88h0l-3.75-.11-2.43-4.41h0l-13-9.49,0,0H41.62l-6,1.56,4.42,15,8.31-1.68L63,67.5c2.36,6.16,7.69,14.44,7.69,14.44l10.29-1.31h0l-5.1-7.23Z" fill="#c9cacc"/><polygon points="75.74 94.09 72.96 87.47 70.65 81.94 70.64 81.94 56.18 81.26 44.26 85.88 45.18 91.67 48.44 96.9 48.46 96.9 63.6 93.41 75.74 94.09" fill="#c9cacc"/><polygon points="123.55 66.81 131.26 77.43 136.73 82.8 142.38 83.35 144.2 83.53 144.19 83.48 141.46 75.59 139.01 70.53 139.01 70.53 123.55 66.81" fill="#c9cacc"/><path d="M107.68,58.57v0a57.42,57.42,0,0,1,10,3.67l0-.05a61.92,61.92,0,0,0-6.48-12.59L107,46.9l-4.2-2.74v0l.46,3.94Z" fill="#c9cacc"/><polygon points="171.92 100.69 171.91 100.68 167.96 100.34 171.22 112.16 179.34 111.66 179.33 111.65 176.15 108.85 171.92 100.69" fill="#c9cacc"/><polygon points="159.07 112.18 159.1 112.18 154.36 104.74 154.35 104.74 149.83 107.8 145.48 108.92 145.49 108.94 147.01 112.08 159.07 112.18" fill="#c9cacc"/><polygon points="165.3 124.22 175.64 123.75 171.22 112.16 160.95 112.83 165.3 124.22" fill="#c9cacc"/><path d="M202,120.94c-3.29-.26-9.37-.76-14.07-1.61h0l1.07,2.94h0c.14,0,9.36-.18,10.56-.28h.09c.68-.09,2.78-.42,2.78-.42Z" fill="#c9cacc"/><path d="M137.22,89.39l.49.09.34.06h0l8.18,6.76,3,3.45h0l.41-1.55-1.95-2.25L128.27,78.08l-1.12-.4-.16-.05c-2.1-.73-3.79-1.29-5.16-1.73l-1-.31h0l16.35,13.78Z" fill="#c9cacc"/><path d="M160.55,85.79s2.5,0,5.55,0L165,81.47l-3.39-4.75-3-1.37,0,0,.37,4.64.06.8Z" fill="#c9cacc"/><polygon points="147.05 84.53 151.93 98.23 160.96 98.63 165.13 98.9 160.55 85.8 147.05 84.53" fill="#c9cacc"/><path d="M139.1,70.54q2.68.45,5.38.76,3.17.36,6.34.56h0l-14.34-6.52,2.56,5.2h.09Z" fill="#c9cacc"/><polygon points="135.18 112.34 132.54 115.56 136.14 122.29 145.04 123.97 146.42 123.93 150.56 123.82 150.54 123.8 144.13 113.84 135.18 112.34" fill="#c9cacc"/><path d="M9.94,12.11l-1.75,1.4,1.65,4.62c2.1-.21,5.37-.49,9.52-.71l-5.93-4.9Z" fill="#f89c57"/><polygon points="29.06 108.96 31.68 142.72 31.68 142.72 34.91 142.72 34.91 142.72 32.52 108.75 29.06 108.96" fill="#f89c57"/></g><g id="ed8dda79-a4c8-4249-a680-0e8ab378e85c" data-name="Fast"><polygon points="37.48 75.84 80.05 75.84 80.05 90.04 54.77 90.04 54.77 101.55 76.36 101.55 76.36 114.89 54.77 114.89 54.77 141.88 37.48 141.88 37.48 75.84" fill="#ffc425"/><path d="M101.94,122.78v17a19.6,19.6,0,0,1-3.5.44,15.83,15.83,0,0,1-12.94-6.19,25.53,25.53,0,0,1,0-30.84,15.88,15.88,0,0,1,12.74-6.32,16,16,0,0,1,13.17,6c3.16,4,4.78,9.33,4.78,16.08v20.45H102.52V120a7.87,7.87,0,0,0-1.2-4.48,3.37,3.37,0,0,0-2.94-1.64,3.72,3.72,0,0,0-2.88,1.48A5.72,5.72,0,0,0,94.31,119a5.4,5.4,0,0,0,1.07,3.49,3.28,3.28,0,0,0,2.74,1.36,9.48,9.48,0,0,0,3.76-1" fill="#ffc425"/><path d="M145.15,98.27v17.51c-2.05,0-3.34.31-3.85.94a8.32,8.32,0,0,0-1,4.17c-.58,8-3.59,13.7-8.81,17.13-1.73,1.68-4.79,2.47-9.27,2.47h-2.4V123H121a4.74,4.74,0,0,0,3.78-1.27,8.62,8.62,0,0,0,1.29-4.79,43.68,43.68,0,0,1,1-8.83,14.09,14.09,0,0,1,3-5.28c2.53-3,6.09-4.53,10.6-4.53h4.54" fill="#ffc425"/><path d="M160.88,82.93V98.27h5.55v17.51h-5.55a9.9,9.9,0,0,0,1,5.24c.7,1,2.28,1.54,4.73,1.54V140c-1.1,0-1.83.09-2.14.09a15.33,15.33,0,0,1-8.31-2.46,18.38,18.38,0,0,1-6.24-6.69C148,127.3,147,122.52,147,116.66V82.93h13.85" fill="#ffc425"/><path d="M54.77,142.72H37.46a.85.85,0,0,1-.85-.85h0v-66a.86.86,0,0,1,.85-.82H80a.86.86,0,0,1,.86.87h0V90a.85.85,0,0,1-.86.86H55.64v9.8H76.36a.85.85,0,0,1,.85.85h0v13.34a.84.84,0,0,1-.84.86H55.64v26.12a.85.85,0,0,1-.85.85ZM38.35,141H53.9V114.89a.85.85,0,0,1,.85-.85H75.47V102.4H54.77a.85.85,0,0,1-.84-.85V90a.85.85,0,0,1,.84-.85H79.2V76.69H38.35Z" fill="#231f20"/><path d="M98.48,140.83a16.41,16.41,0,0,1-13.39-6.41,26.09,26.09,0,0,1,0-31.59A16.5,16.5,0,0,1,98.26,96.3,16.67,16.67,0,0,1,112,102.55c3.29,4.17,5,9.71,5,16.45v20.45a.59.59,0,0,1-.58.59H102.5a.6.6,0,0,1-.44.4A19.52,19.52,0,0,1,98.48,140.83Zm-.15-43.35A15.43,15.43,0,0,0,86,103.57a24.92,24.92,0,0,0,0,30.11,15.32,15.32,0,0,0,12.44,6,16.76,16.76,0,0,0,2.92-.35V123.68a9.07,9.07,0,0,1-3.17.7,3.85,3.85,0,0,1-3.2-1.59,5.87,5.87,0,0,1-1.2-3.85,6.22,6.22,0,0,1,1.32-3.89,4.26,4.26,0,0,1,3.33-1.74,4,4,0,0,1,3.44,1.91,8.44,8.44,0,0,1,1.19,4.78v18.79h12.64V118.93c0-6.48-1.58-11.77-4.7-15.73a15.56,15.56,0,0,0-12.77-5.69Zm.15,17a3.08,3.08,0,0,0-2.39,1.27,5,5,0,0,0-1,3.16,4.72,4.72,0,0,0,.93,3.12,2.72,2.72,0,0,0,2.29,1.2,9.14,9.14,0,0,0,3.51-1H102v-2.15a7.33,7.33,0,0,0-1-4.16A2.81,2.81,0,0,0,98.48,114.51Z" fill="#231f20"/><path d="M122.23,141.07h-2.39a.6.6,0,0,1-.6-.58V123a.6.6,0,0,1,.6-.6H121a4.19,4.19,0,0,0,3.32-1,8,8,0,0,0,1.2-4.43,45.6,45.6,0,0,1,1-8.95,14.86,14.86,0,0,1,3.09-5.49c2.6-3.16,6.32-4.79,11.06-4.79h4.45a.6.6,0,0,1,.6.6v17.5a.61.61,0,0,1-.6.6c-2.54,0-3.21.51-3.39.72-.31.4-.73,1.38-.91,3.84-.57,8.07-3.59,14-9,17.55C130,140.22,126.88,141.07,122.23,141.07Zm-1.78-1.19h1.78c4.36,0,7.27-.75,8.87-2.3a.14.14,0,0,1,.09,0c5.1-3.36,8-9,8.53-16.68a8.57,8.57,0,0,1,1.19-4.5c.58-.72,1.77-1.09,3.72-1.2V98.86h-3.91a12.5,12.5,0,0,0-10.15,4.33,13.39,13.39,0,0,0-2.84,5,43.82,43.82,0,0,0-1,8.7,9.33,9.33,0,0,1-1.42,5.11,5.23,5.23,0,0,1-4.25,1.48h-.65Z" fill="#231f20"/><path d="M164.51,140.63a15.8,15.8,0,0,1-8.62-2.55,18.82,18.82,0,0,1-6.45-6.9c-2-3.77-3-8.65-3-14.52V82.93a.58.58,0,0,1,.59-.58h13.85a.58.58,0,0,1,.59.58h0V97.68h5a.58.58,0,0,1,.59.58h0v17.51a.61.61,0,0,1-.59.6h-5a8.33,8.33,0,0,0,.93,4.3c.57.87,2,1.3,4.24,1.3a.6.6,0,0,1,.6.58V140a.58.58,0,0,1-.58.58l-1.49.08Zm-16.88-57.1v33.13c0,5.68,1,10.37,2.85,14a17.72,17.72,0,0,0,6,6.47,14.67,14.67,0,0,0,8,2.39H166V123.15c-2.39-.08-3.88-.68-4.63-1.81a10.14,10.14,0,0,1-1.19-5.56.58.58,0,0,1,.58-.59h5V98.86h-4.95a.58.58,0,0,1-.6-.57V83.53Z" fill="#231f20"/></g><g id="af090d58-4fc3-4cd4-99a1-4839fdcd8c99" data-name="Trac"><polygon points="201.29 95.17 201.29 138.56 185.68 138.56 185.68 95.17 174.82 95.17 174.82 75.87 212.08 75.87 212.08 95.17 201.29 95.17" fill="#e31b23"/><path d="M236.16,92V111.5a8.94,8.94,0,0,0-3.26-1c-1.82,0-2.77,2-2.77,6.09v22H215.65V113.43c0-6.69,1.45-12,4.29-16a13.31,13.31,0,0,1,11.49-6,29.05,29.05,0,0,1,4.73.63" fill="#e31b23"/><path d="M259.79,120.1V139a19.17,19.17,0,0,1-3.69.51,16.34,16.34,0,0,1-13.54-6.88,27,27,0,0,1-5.46-17.19,27.28,27.28,0,0,1,5.49-17.08c3.59-4.78,8.12-7,13.38-7A16.43,16.43,0,0,1,269.79,98c3.31,4.45,5.07,10.37,5.07,17.94v22.74H260.35V117.13a9.32,9.32,0,0,0-1.2-4.95,3.45,3.45,0,0,0-3.08-1.83,3.77,3.77,0,0,0-3,1.64,6.44,6.44,0,0,0-1.25,3.91,6.27,6.27,0,0,0,1.13,3.91,3.4,3.4,0,0,0,2.86,1.51,9.33,9.33,0,0,0,3.95-1.2" fill="#e31b23"/><path d="M303.39,116.32c4.7-.23,9.43-.41,14.17-.64-.39,7.33-2.34,13.07-5.84,17.39a15.81,15.81,0,0,1-12.81,6.47c-5.3,0-9.84-2.39-13.45-7.11A27.65,27.65,0,0,1,280,115.08a26.45,26.45,0,0,1,5.56-16.75c3.59-4.66,8.1-6.94,13.24-6.94a15.92,15.92,0,0,1,12,5.46c3.41,3.73,5.61,8.69,6.47,15l-14.3.66c-1.1-1.93-2.46-2.88-4-2.88a3.69,3.69,0,0,0-3.09,1.61,6.55,6.55,0,0,0-1.19,4.14,6.72,6.72,0,0,0,1.26,4.2,3.89,3.89,0,0,0,3.25,1.66c1.86,0,3.29-1.64,4.2-4.92" fill="#e31b23"/><path d="M201.29,139.15H185.73a.59.59,0,0,1-.58-.59h0V95.77H174.82a.58.58,0,0,1-.58-.58V75.87a.57.57,0,0,1,.57-.59h37.27a.59.59,0,0,1,.6.59v19.3a.6.6,0,0,1-.6.6H201.89v42.79a.59.59,0,0,1-.59.59Zm-15-1.2H200.7V95.17a.59.59,0,0,1,.59-.58H211.5V76.46H175.42V94.59h10.25a.59.59,0,0,1,.6.58Z" fill="#231f20"/><path d="M230.1,139.15H215.62a.59.59,0,0,1-.58-.59h0V113.43c0-6.71,1.47-12.21,4.39-16.37a13.92,13.92,0,0,1,12-6.24,28.56,28.56,0,0,1,4.79.63.6.6,0,0,1,.48.59v19.5a.55.55,0,0,1-.84.49,8.12,8.12,0,0,0-3-.92c-1.8,0-2.18,3-2.18,5.51v21.94A.59.59,0,0,1,230.1,139.15ZM216.22,138h13.3V116.6c0-4.43,1.13-6.68,3.36-6.68a7.78,7.78,0,0,1,2.67.67V92.48a24.16,24.16,0,0,0-4.14-.52,12.65,12.65,0,0,0-11,5.74c-2.78,4-4.18,9.22-4.18,15.69Z" fill="#231f20"/><path d="M256.1,140.13a16.92,16.92,0,0,1-14-7.11,27.66,27.66,0,0,1-5.58-17.55A28,28,0,0,1,242.1,98c3.65-4.78,8.31-7.18,13.85-7.18a17,17,0,0,1,14.28,6.84c3.46,4.63,5.21,10.77,5.21,18.24v22.74a.58.58,0,0,1-.59.58H260.36a.58.58,0,0,1-.45.47A20.38,20.38,0,0,1,256.1,140.13ZM256,92c-5.14,0-9.49,2.29-12.91,6.77a26.4,26.4,0,0,0-5.36,16.75A26.55,26.55,0,0,0,243,132.33,15.82,15.82,0,0,0,256.1,139a17.09,17.09,0,0,0,3.1-.4V121a8.68,8.68,0,0,1-3.36.81,4,4,0,0,1-3.35-1.76,7,7,0,0,1-1.2-4.26,7.25,7.25,0,0,1,1.38-4.26,4.39,4.39,0,0,1,3.48-1.89,4.05,4.05,0,0,1,3.59,2.12,10,10,0,0,1,1.2,5.27V138h13.33V115.87c0-7.17-1.68-13.16-5-17.54A15.88,15.88,0,0,0,256,92Zm.13,18.87a3.19,3.19,0,0,0-2.53,1.42,6,6,0,0,0-1.14,3.59,5.73,5.73,0,0,0,1,3.59,2.81,2.81,0,0,0,2.39,1.28,8.8,8.8,0,0,0,3.68-1.07.49.49,0,0,1,.24,0v-2.47a8.73,8.73,0,0,0-1.07-4.64A2.89,2.89,0,0,0,256.1,110.85Z" fill="#231f20"/><path d="M298.91,140.13c-5.56,0-10.24-2.47-13.91-7.34a28.32,28.32,0,0,1-5.61-17.71,27.05,27.05,0,0,1,5.68-17.14c3.7-4.79,8.3-7.18,13.71-7.18a16.38,16.38,0,0,1,12.42,5.65,27.57,27.57,0,0,1,6.63,15.34.66.66,0,0,1-.13.45.6.6,0,0,1-.43.22l-14.36.65a.57.57,0,0,1-.54-.29c-1-1.7-2.14-2.58-3.46-2.58a3.13,3.13,0,0,0-2.62,1.38,6,6,0,0,0-1.07,3.78,6.15,6.15,0,0,0,1.13,3.83,3.29,3.29,0,0,0,2.78,1.45c1.58,0,2.8-1.51,3.59-4.49a.59.59,0,0,1,.55-.43c2.39-.12,4.79-.23,7.18-.32l6.94-.32a.56.56,0,0,1,.44.17.6.6,0,0,1,.17.46c-.38,7.44-2.33,13.24-6,17.72A16.45,16.45,0,0,1,298.91,140.13ZM298.78,92c-5,0-9.32,2.25-12.78,6.71a26,26,0,0,0-5.43,16.41,26.93,26.93,0,0,0,5.37,17c3.44,4.55,7.8,6.86,13,6.86a15.25,15.25,0,0,0,12.34-6.24c3.37-4.15,5.23-9.51,5.67-16.39l-6.28.27-6.8.31c-1,3.28-2.56,4.94-4.65,4.94a4.48,4.48,0,0,1-3.72-1.91,7.27,7.27,0,0,1-1.38-4.55,7.1,7.1,0,0,1,1.33-4.5A4.24,4.24,0,0,1,299,109c1.2,0,2.84.5,4.3,2.85l13.29-.61a26.23,26.23,0,0,0-6.22-14.06A15.27,15.27,0,0,0,298.78,92Z" fill="#231f20"/></g><g id="ca7c019b-cd1e-41d9-9a3e-eedcd5f8d121" data-name="Reg"><path d="M302.83,81a6.62,6.62,0,0,1,.91-3.38,6.54,6.54,0,0,1,2.47-2.48,6.8,6.8,0,0,1,9.27,2.46,6.79,6.79,0,0,1,.91,3.4,6.65,6.65,0,0,1-.88,3.34,6.78,6.78,0,0,1-5.9,3.43,6.65,6.65,0,0,1-3.44-.93A6.74,6.74,0,0,1,302.83,81Zm.95,0a5.83,5.83,0,0,0,5.83,5.83,5.67,5.67,0,0,0,2.91-.78,5.78,5.78,0,0,0,2.13-2.12,5.65,5.65,0,0,0,.79-2.93,5.72,5.72,0,0,0-.78-2.91A6,6,0,0,0,312.54,76a5.79,5.79,0,0,0-5.84,0,5.78,5.78,0,0,0-2.13,2.12A5.59,5.59,0,0,0,303.78,81Zm8.58-1.64a2.24,2.24,0,0,1-.38,1.28,2.3,2.3,0,0,1-1.08.82L313,85h-1.51l-1.87-3.19h-1.21V85h-1.34V77h2.36a3.37,3.37,0,0,1,2.19.59A2.17,2.17,0,0,1,312.36,79.37Zm-3.91,1.36h1a1.72,1.72,0,0,0,1.16-.37,1.21,1.21,0,0,0,.44-1,1.13,1.13,0,0,0-.39-1,2,2,0,0,0-1.23-.29h-.95Z"/></g></g></svg>