<svg xmlns="http://www.w3.org/2000/svg" viewBox="0 0 318 180"><title>fast_trac-logo-2</title><g id="38c873df-2092-4d4f-acc1-2d929635addd" data-name="Fast Trac Logo 2"><g id="116ce65c-d19e-48da-875d-f41485a5e989" data-name="Flag"><path d="M183.9,41.2c-25.47,5.75-73.7-2.41-73.7-2.41L104,24.25C79.84,9.35,46.59,8.29,26.45,9.31L23.63,5.74l-5.51-2-6-.51L6.29,5l2.42,6.34L7.5,18.17s3.23,8.38,9,27.08S24,82.18,24.61,83.84,28.52,90,28.52,90L29,96.52l1,2,2.76,41.05,1.54-.39-2.81-45.3,3.18-.29,2.46,44.88,2.53-.64L41.45,89c28.52-8,64.38-6.72,64.38-6.72L104,88.15c3.91,8.7,11.09,11.13,11.09,11.13,23.36,8.57,45.66,8,61,6.28,9.77-1.09,17.82-2.6,17.82-2.6C176.12,62.64,183.9,41.2,183.9,41.2Zm-7.37,4.16,1.38,4.31-.61,6.49-13.3.16-2.93-9.59S165.33,46.87,176.53,45.36Zm-44.7,9.94L126.37,45l17.59.85,3.09,10.45s-1.83,0-4.3-.14h0c-2,0-3.91-.17-5.86-.33s-3.69-.32-5-.54h-.08l2.4,4.6,2.74,7.2,0,0L135.32,67l-5.22-.35-5.2-4.8-7.42-9.57,14.37,3h0Zm-16.57,5.2h0l.91.25c1.28.37,2.86.84,4.81,1.45l.15,0,1,.33,18.43,15.92,1.89,2L142.14,82h0l-2.87-3.1-7.74-6-.32-.05-.46-.07h0l-9.6-1.49-5.44-6.94L111,59.49A26.12,26.12,0,0,1,115.26,60.5ZM59.09,24.75l11.14,2L62.68,14.07l10,1.34L84,17.93,90.83,30.3l5.93,1.22.91.55v0l4,2.4,4,2.37a57.26,57.26,0,0,1,6.35,11.47h0l0,0a52.6,52.6,0,0,0-9.3-3.1v0c-.76-.17-1.52-.33-2.29-.47L90.83,30.3,81.29,28,70.23,26.72l7.4,14.35-15.1-1.36-9.45.86s-6.12-11.68-8-15.2ZM11.24,10.68,9.58,6.46l1.58-1.33,3.23.27L20,9.75C16.18,10.07,13.17,10.42,11.24,10.68ZM16.3,29.49h0l3.42-1.73,6.8-.37L23.24,18.6,20.14,13s11.78-1.33,19.54-1.37l5.39,13.76-10-.45-8.56,2.45,7.53,14.24h0L21.23,44.38ZM38,71.7l-8.87,4.94L28.5,66.47l-2.42-5.93,6.57-2.71,7.83-1.66s1.83,8,3.8,15Zm25,6.87L49.11,82.22h0l-3.16-4.73-1-5.31,10.86-4.6,13.36.21h0l2.3,5,2.77,6ZM78.58,66.28l-9.45,1.5S64,60.3,61.62,54.69l-13.49-.31-7.62,1.78L36,42.46l5.49-1.61,4.36-.13,0,0,7.16-.18,5.08,8.56h0l2.37,4H76l10.11,1.21L77.64,41l9.83,1,11.38,2.85s4.85,8.07,8.61,13l-8.49-2-12.86-1.6,9.47,12.86L79.64,66.11l-1.06.17Zm38.05,29.79-5.35-5.59L109.84,88l2.79-1.56,6.21,6.31-.15,4.82Zm3.17-13.31-2.72,1.16h0l-2.45,1-2-2.86,4.08.08,3.06.57Zm-1.1-2.47L103.24,78.4l-.16-.24-7.5-11,14,1.74,11.54,2.32,5.49,7L126.36,82Zm8.3,9.45-2.1-6.06,12.39,1.91h0l1.14.52h0l1,.43L135,88.47l-3.37.53-3.94.66,0,0Zm17,14.38-3.81.22-1.27.08-8.26-1.3L127.17,97l2.34-3,8.3,1.13,6.22,9h0Zm-3.6-10.66-1.52-2.92h0v0l4-1.15,4.08-3h0l4.59,6.73h0l0,0Zm12.47-12.87-8.34-.11L139.67,68l12.48.78L150.5,64.2l-.08-.76L150,59.18h0l-.2-2A120.57,120.57,0,0,0,164,56.35a37.15,37.15,0,0,1,3.05,11.51c-3.11.62-14.9.91-14.9.91l4.6,12Zm17.32,11.49-7.46.69,4.4,10.57-9.52.72-4.34-10.38,9.46-.91L159.4,82l3.65.2h0l3.67.21,4.42-.73s-2-7.4-2.15-8.25-.64-4.51-.64-4.51l10.41-.26s2.08,8.17,3.85,12.86L172,83.08l2.41,8.61-4.2.39Zm18.92,9c-1.1.12-9.72.55-9.72.55h0l-1.07-2.68h0l-2.19-5.46,9.83-.63,5.82,7.75-2.57.45Z" fill="#231f20"/><polygon points="146.97 86.41 142.89 89.37 146.97 86.42 146.97 86.41" fill="#fff"/><polygon points="137.81 95.1 144.01 104.1 144.03 104.09 137.81 95.1" fill="#fff"/><polygon points="53.06 40.57 45.9 40.75 58.14 49.13 53.06 40.57" fill="#fff"/><path d="M62.53,39.71l15.1,1.36-7.4-14.35-11.14-2-14,.62c1.86,3.52,8,15.2,8,15.2Z" fill="#fff"/><polygon points="140.41 93.4 138.92 90.54 138.9 90.54 140.42 93.46 151.57 93.19 151.54 93.14 140.41 93.4" fill="#fff"/><polygon points="130.69 103.12 127.17 97.01 130.68 103.13 138.94 104.42 140.21 104.34 138.94 104.41 130.69 103.12" fill="#fff"/><polygon points="124.95 83.7 137.3 85.6 137.29 85.59 124.9 83.68 127 89.74 127.61 89.64 126.87 89.24 124.95 83.7" fill="#fff"/><polygon points="131.59 89 134.96 88.47 139.42 86.55 138.46 86.12 132.34 88.88 131.59 89" fill="#fff"/><polygon points="90.83 30.3 83.96 17.93 72.72 15.41 62.68 14.07 70.23 26.71 81.29 28.03 90.83 30.3" fill="#fff"/><path d="M179.41,101.59s8.62-.43,9.72-.55c-1.1.12-9.59.55-9.72.55Z" fill="#fff"/><path d="M186,92.82l-9.83.63,2.19,5.46c4.35.65,10,.93,13,1.08l.43.58-2.55.45,2.57-.45Z" fill="#fff"/><path d="M172,83.08l10.62-1.58c-1.77-4.69-3.85-12.86-3.85-12.86l-10.41.26s.47,3.65.64,4.51,2.15,8.25,2.15,8.25l-4.42.73-3.67-.21,4.13,7.4,3,2.5,4.2-.39Z" fill="#fff"/><path d="M164,56.35a120.57,120.57,0,0,1-14.21.86l.2,2,2.83,1.18,3.26,4.28,1.19,3.94c-2.82.08-5.12.17-5.12.17l-1.65-4.58-.08-.74.08.76,1.65,4.57s11.79-.29,14.9-.91A37.15,37.15,0,0,0,164,56.35Z" fill="#fff"/><path d="M25.07,23.44l4.07,3.19-2.59.74,7.54,14.26h0L26.56,27.39l8.56-2.45,10,.45L39.68,11.63C31.92,11.67,20.14,13,20.14,13l3.1,5.6,3.29,8.77h0Z" fill="#fff"/><polygon points="16.3 29.49 21.23 44.38 16.31 29.48 16.3 29.49" fill="#fff"/><polygon points="74.18 78.84 62.97 78.56 49.1 82.21 49.11 82.22 62.99 78.57 74.2 78.86 71.43 72.82 74.18 78.84" fill="#fff"/><polygon points="116.74 82.19 112.66 82.11 114.63 84.97 117.08 83.92 114.06 82.14 116.77 82.2 119.8 82.76 119.8 82.76 116.74 82.19" fill="#fff"/><path d="M121.12,62.24l1,.33Z" fill="#fff"/><polygon points="95.58 67.19 86.11 54.33 76 53.12 63.97 53.12 73.67 59.76 78.58 66.28 79.64 66.11 95.58 67.19" fill="#fff"/><path d="M116.16,60.75c1.28.37,2.85.84,4.81,1.45C119,61.59,117.44,61.12,116.16,60.75Z" fill="#fff"/><polygon points="135.32 67.04 137.01 67.15 136.99 67.11 137.01 67.15 135.32 67.04" fill="#fff"/><polygon points="131.19 72.82 131.51 72.87 131.51 72.86 131.19 72.82" fill="#fff"/><path d="M121.13,71.25l9.6,1.49L115.26,60.5a26.12,26.12,0,0,0-4.3-1l4.73,4.82Z" fill="#fff"/><path d="M111.91,48.26h0a57.26,57.26,0,0,0-6.35-11.47l-4-2.37,4,2.4A56.35,56.35,0,0,1,111.91,48.26Z" fill="#fff"/><path d="M102.62,45.18l-4.41-9.5-.54-3.61-.91-.55L90.83,30.3l9.5,14.41C101.1,44.85,101.86,45,102.62,45.18Z" fill="#fff"/><polygon points="131.85 55.31 131.85 55.31 117.48 52.32 124.9 61.89 117.49 52.32 131.85 55.31" fill="#fff"/><polygon points="142.12 81.95 142.13 81.96 142.48 80.52 140.59 78.49 142.46 80.51 142.12 81.95" fill="#fff"/><polygon points="69.13 67.78 55.77 67.57 69.13 67.78 69.13 67.78" fill="#fff"/><path d="M136.92,55.86c-1.67-.14-3.33-.32-5-.54C133.23,55.54,135,55.72,136.92,55.86Z" fill="#fff"/><path d="M177.3,56.16l.61-6.49-1.38-4.31c-11.2,1.51-15.46,1.37-15.46,1.37L164,56.32Z" fill="#fff"/><path d="M107.46,57.93c-3.76-5-8.61-13-8.61-13L87.47,42l-9.83-1,8.47,13.29L99,55.93Z" fill="#fff"/><path d="M110.79,76.51c1.17,0,11.67,1.19,15.84,1.7l-5.49-7L109.6,68.93l-14-1.74,7.5,11-.34-.51A78,78,0,0,1,110.79,76.51Z" fill="#fff"/><path d="M142.75,56.19c2.47.1,4.3.14,4.3.14L144,45.88,126.37,45l5.46,10.27h0l-2.51-4.73Z" fill="#fff"/><polygon points="112.63 86.41 109.84 87.96 111.28 90.48 116.63 96.07 118.69 97.53 118.83 92.71 112.63 86.41" fill="#fff"/><path d="M126.63,78.21c-4.17-.51-14.67-1.65-15.84-1.7a78,78,0,0,0-8.05,1.14l.34.51.16.24,15.46,1.89L126.36,82Z" fill="#c9cacc"/><polygon points="34.09 41.63 26.55 27.37 26.53 27.37 19.73 27.74 16.31 29.47 16.31 29.48 21.23 44.38 34.09 41.63 34.09 41.63" fill="#c9cacc"/><polygon points="25.07 23.44 26.55 27.37 29.14 26.63 25.07 23.44" fill="#c9cacc"/><polygon points="131.59 89 132.34 88.88 138.46 86.12 138.46 86.12 137.32 85.6 137.3 85.6 124.95 83.7 126.87 89.24 127.61 89.64 127.65 89.66 131.59 89" fill="#c9cacc"/><path d="M32.65,57.83l-6.57,2.71,2.42,5.93.61,10.17L38,71.7l6.3-.53c-2-7-3.8-15-3.8-15Z" fill="#c9cacc"/><polygon points="114.06 82.14 117.08 83.92 117.08 83.92 119.8 82.76 119.8 82.76 116.77 82.2 114.06 82.14" fill="#c9cacc"/><path d="M64,53.12H60.51l-2.37-4h0L45.9,40.75l0,0-4.36.13L36,42.46l4.5,13.7,7.62-1.78,13.49.31C64,60.3,69.13,67.78,69.13,67.78l9.45-1.5h0l-4.91-6.52Z" fill="#c9cacc"/><polygon points="74.18 78.84 71.43 72.82 69.13 67.78 69.13 67.78 55.77 67.57 44.91 72.17 45.93 77.48 49.09 82.21 49.1 82.21 62.97 78.56 74.18 78.84" fill="#c9cacc"/><polygon points="117.49 52.32 124.9 61.89 130.1 66.69 135.32 67.04 137.01 67.15 136.99 67.11 134.25 59.91 131.85 55.31 131.85 55.31 117.49 52.32" fill="#c9cacc"/><path d="M102.62,45.18v0a52.6,52.6,0,0,1,9.3,3.1l0,0a56.35,56.35,0,0,0-6.33-11.43l-4-2.4-4-2.4v0l.54,3.61Z" fill="#c9cacc"/><polygon points="163.06 82.18 163.05 82.17 159.4 81.97 162.75 92.78 170.21 92.08 170.21 92.08 167.19 89.58 163.06 82.18" fill="#c9cacc"/><polygon points="151.54 93.14 151.57 93.14 146.98 86.41 146.97 86.42 142.89 89.37 138.91 90.52 138.92 90.54 140.41 93.4 151.54 93.14" fill="#c9cacc"/><polygon points="157.63 104.06 167.15 103.34 162.75 92.78 153.29 93.68 157.63 104.06" fill="#c9cacc"/><path d="M191.34,100c-3-.15-8.66-.43-13-1.08h0l1.07,2.68h0c.13,0,8.62-.43,9.72-.55l.09,0,2.55-.45Z" fill="#c9cacc"/><path d="M130.73,72.75l.46.07.32,0h0l7.74,6,2.87,3.1h0l.34-1.44-1.87-2L122.16,62.57l-1-.33-.15,0c-2-.61-3.53-1.08-4.81-1.45l-.91-.25h0l15.47,12.24Z" fill="#c9cacc"/><path d="M152.15,68.76s2.3-.09,5.12-.17l-1.19-3.94-3.26-4.28L150,59.19h0l.47,4.26.08.74Z" fill="#c9cacc"/><polygon points="139.67 67.99 144.55 80.48 152.89 80.59 156.75 80.72 152.15 68.78 139.67 67.99" fill="#c9cacc"/><path d="M131.93,55.32c1.66.22,3.32.4,5,.54,2,.16,3.9.28,5.86.33h0l-13.41-5.61,2.51,4.73h.08Z" fill="#c9cacc"/><polygon points="129.51 93.97 127.17 97.01 130.69 103.12 138.94 104.41 140.21 104.34 144.02 104.12 144.01 104.1 137.81 95.1 129.51 93.97" fill="#c9cacc"/><path d="M11.16,5.13,9.58,6.46l1.66,4.22c1.93-.26,4.94-.61,8.76-.93L14.39,5.4Z" fill="#f89c57"/><polygon points="31.55 93.89 34.37 139.19 34.37 139.19 37.2 138.48 37.2 138.48 34.74 93.6 31.55 93.89" fill="#f89c57"/></g><g id="e0c491f1-4037-4ec4-8e2e-f997d468ce8a" data-name="Fast"><polygon points="25.09 72.11 69.3 72.11 69.3 86.86 43.05 86.86 43.05 98.81 65.47 98.81 65.47 112.67 43.05 112.67 43.05 140.7 25.09 140.7 25.09 72.11" fill="#ffc425"/><path d="M92,120.86v17.7a19.49,19.49,0,0,1-3.64.46A16.45,16.45,0,0,1,75,132.59a26.52,26.52,0,0,1,0-32,17.36,17.36,0,0,1,26.91-.34c3.28,4.16,5,9.69,5,16.7v21.24H92.64V118a8.21,8.21,0,0,0-1.25-4.65,3.48,3.48,0,0,0-3-1.71,3.86,3.86,0,0,0-3,1.53,6,6,0,0,0-1.24,3.73,5.56,5.56,0,0,0,1.12,3.63A3.43,3.43,0,0,0,88.07,122,9.91,9.91,0,0,0,92,120.91" fill="#ffc425"/><path d="M136.92,95.41v18.18c-2.13,0-3.47.32-4,1a8.64,8.64,0,0,0-1.07,4.33c-.6,8.29-3.73,14.23-9.15,17.8-1.8,1.74-5,2.56-9.63,2.56h-2.49V121h1.25a4.9,4.9,0,0,0,3.92-1.32,8.91,8.91,0,0,0,1.35-5,45,45,0,0,1,1-9.18,14.84,14.84,0,0,1,3.09-5.48c2.62-3.17,6.32-4.71,11-4.71h4.71" fill="#ffc425"/><path d="M153.26,79.48V95.41H159v18.18h-5.77a10.13,10.13,0,0,0,1.08,5.44c.72,1.09,2.36,1.61,4.91,1.61V138.7c-1.14,0-1.9.1-2.22.1a16,16,0,0,1-8.63-2.56,19.31,19.31,0,0,1-6.49-7c-2-3.73-3-8.7-3-14.78v-35h14.39" fill="#ffc425"/><path d="M43.05,141.58h-18a.89.89,0,0,1-.88-.88h0V72.1a.88.88,0,0,1,.88-.84H69.27a.9.9,0,0,1,.9.89h0v14.7a.9.9,0,0,1-.9.89H43.94V97.92H65.47a.88.88,0,0,1,.88.88h0v13.86a.88.88,0,0,1-.87.9H43.94V140.7a.88.88,0,0,1-.88.88ZM26,139.8H42.14V112.67a.87.87,0,0,1,.88-.88H64.55V99.7H43.05a.89.89,0,0,1-.89-.89v-12a.89.89,0,0,1,.89-.89H68.41V73H26Z" fill="#231f20"/><path d="M88.45,139.62A17.07,17.07,0,0,1,74.54,133a27.08,27.08,0,0,1,0-32.81,17.1,17.1,0,0,1,13.67-6.78,17.3,17.3,0,0,1,14.24,6.49c3.42,4.33,5.15,10.09,5.15,17.08v21.24a.63.63,0,0,1-.61.63H92.62a.64.64,0,0,1-.46.41A21,21,0,0,1,88.45,139.62Zm-.16-45a16,16,0,0,0-12.77,6.32,25.88,25.88,0,0,0,0,31.27,15.88,15.88,0,0,0,12.93,6.19,15.48,15.48,0,0,0,3-.36V121.79a9.6,9.6,0,0,1-3.29.74,4,4,0,0,1-3.33-1.66,6.06,6.06,0,0,1-1.25-4,6.51,6.51,0,0,1,1.37-4,4.44,4.44,0,0,1,3.47-1.8A4.14,4.14,0,0,1,92,113a8.83,8.83,0,0,1,1.25,5v19.51h13.12V116.86c0-6.72-1.64-12.22-4.88-16.33a16.19,16.19,0,0,0-13.26-5.92Zm.16,17.68A3.23,3.23,0,0,0,86,113.59a5.2,5.2,0,0,0-1.09,3.28,4.94,4.94,0,0,0,1,3.25,2.83,2.83,0,0,0,2.37,1.24,9.39,9.39,0,0,0,3.66-1,.81.81,0,0,1,.22,0v-2.23A7.62,7.62,0,0,0,91,113.81,3,3,0,0,0,88.45,112.27Z" fill="#231f20"/><path d="M113.12,139.86h-2.49a.62.62,0,0,1-.62-.6V121a.63.63,0,0,1,.62-.63h1.25a4.32,4.32,0,0,0,3.45-1.08,8.19,8.19,0,0,0,1.24-4.6,47.54,47.54,0,0,1,1-9.29,15.39,15.39,0,0,1,3.21-5.71c2.7-3.28,6.56-5,11.49-5h4.62a.62.62,0,0,1,.62.62v18.19a.64.64,0,0,1-.62.62c-2.64,0-3.33.52-3.52.74-.32.41-.76,1.43-.94,4-.6,8.38-3.73,14.52-9.37,18.24C121.22,139,117.94,139.86,113.12,139.86Zm-1.85-1.24h1.85c4.52,0,7.54-.77,9.21-2.38a.11.11,0,0,1,.08,0c5.31-3.5,8.29-9.33,8.87-17.33a8.82,8.82,0,0,1,1.24-4.67c.6-.75,1.84-1.13,3.86-1.25V96h-4.06a12.92,12.92,0,0,0-10.54,4.5,13.85,13.85,0,0,0-3,5.24,45.75,45.75,0,0,0-1,9,9.63,9.63,0,0,1-1.48,5.3,5.39,5.39,0,0,1-4.41,1.54h-.67Z" fill="#231f20"/><path d="M157,139.41a16.42,16.42,0,0,1-8.95-2.65,19.46,19.46,0,0,1-6.7-7.17c-2.08-3.92-3.12-9-3.12-15.08v-35a.61.61,0,0,1,.61-.61h14.39a.61.61,0,0,1,.61.61h0V94.79H159a.61.61,0,0,1,.61.61h0v18.18a.61.61,0,0,1-.61.62h-5.15a8.82,8.82,0,0,0,1,4.48c.59.89,2.07,1.34,4.4,1.34a.61.61,0,0,1,.62.61V138.7a.61.61,0,0,1-.59.61l-1.56.07ZM139.49,80.1v34.41c0,5.89,1,10.76,3,14.49a18.35,18.35,0,0,0,6.22,6.73,15.23,15.23,0,0,0,8.29,2.48h1.61v-17c-2.48-.09-4-.71-4.81-1.88a10.47,10.47,0,0,1-1.24-5.78.61.61,0,0,1,.61-.61h5.16V96h-5.15a.61.61,0,0,1-.62-.6h0V80.1Z" fill="#231f20"/></g><g id="ef0b05df-cc60-46bd-b71e-15e87feef54d" data-name="Trac"><polygon points="195.23 92.19 195.23 137.25 179.01 137.25 179.01 92.19 167.74 92.19 167.74 72.14 206.44 72.14 206.44 92.19 195.23 92.19" fill="#e31b23"/><path d="M231.45,88.88v20.26a9.33,9.33,0,0,0-3.38-1c-1.89,0-2.88,2.13-2.88,6.33v22.8h-15V111.16c0-7,1.5-12.43,4.46-16.66a13.85,13.85,0,0,1,11.93-6.21,29.12,29.12,0,0,1,4.91.66" fill="#e31b23"/><path d="M256,118.08v19.66a19.84,19.84,0,0,1-3.83.53,17,17,0,0,1-14.07-7.14,28.1,28.1,0,0,1-5.67-17.86,28.27,28.27,0,0,1,5.71-17.74c3.72-5,8.42-7.27,13.89-7.27a17.09,17.09,0,0,1,14.36,6.85c3.44,4.62,5.27,10.78,5.27,18.64v23.62H256.58V115a9.75,9.75,0,0,0-1.24-5.15,3.62,3.62,0,0,0-3.21-1.9,3.94,3.94,0,0,0-3.12,1.7,6.76,6.76,0,0,0-1.3,4.07,6.49,6.49,0,0,0,1.18,4.06,3.54,3.54,0,0,0,3,1.57,9.75,9.75,0,0,0,4.1-1.25" fill="#e31b23"/><path d="M301.28,114.15c4.89-.24,9.8-.42,14.72-.66-.4,7.61-2.42,13.57-6.07,18.06a16.35,16.35,0,0,1-13.29,6.72c-5.51,0-10.23-2.48-14-7.38a28.69,28.69,0,0,1-5.7-18,27.5,27.5,0,0,1,5.77-17.4c3.73-4.85,8.42-7.21,13.76-7.21a16.5,16.5,0,0,1,12.43,5.67c3.54,3.88,5.83,9,6.72,15.61l-14.85.68c-1.14-2-2.56-3-4.13-3a3.8,3.8,0,0,0-3.2,1.67,6.79,6.79,0,0,0-1.25,4.3,7,7,0,0,0,1.32,4.36,4,4,0,0,0,3.37,1.73c1.94,0,3.42-1.71,4.36-5.11" fill="#e31b23"/><path d="M195.23,137.86H179.08a.61.61,0,0,1-.61-.61h0V92.81H167.74a.61.61,0,0,1-.61-.61h0v-20a.62.62,0,0,1,.6-.62h38.71a.62.62,0,0,1,.62.62v20a.62.62,0,0,1-.62.62H195.85v44.44a.6.6,0,0,1-.6.61Zm-15.6-1.24h15V92.19a.61.61,0,0,1,.61-.61h10.6V72.75H168.36V91.58H179a.61.61,0,0,1,.62.61Z" fill="#231f20"/><path d="M225.16,137.86h-15a.61.61,0,0,1-.61-.61h0V111.16c0-7,1.53-12.69,4.56-17a14.45,14.45,0,0,1,12.43-6.48,28.54,28.54,0,0,1,5,.65.61.61,0,0,1,.5.61v20.26a.6.6,0,0,1-.27.51.64.64,0,0,1-.6,0,8.58,8.58,0,0,0-3.12-1c-1.86,0-2.26,3.11-2.26,5.72v22.79A.6.6,0,0,1,225.16,137.86Zm-14.42-1.24h13.81V114.45c0-4.61,1.18-7,3.49-7a8.37,8.37,0,0,1,2.78.7V89.39a26.06,26.06,0,0,0-4.3-.54,13.14,13.14,0,0,0-11.44,6c-2.88,4.1-4.34,9.58-4.34,16.3Z" fill="#231f20"/><path d="M252.17,138.88a17.55,17.55,0,0,1-14.58-7.38,28.7,28.7,0,0,1-5.79-18.23,29,29,0,0,1,5.83-18.11c3.79-5,8.62-7.46,14.38-7.46a17.67,17.67,0,0,1,14.84,7.1c3.59,4.81,5.4,11.18,5.4,19v23.62a.61.61,0,0,1-.61.61H256.59a.6.6,0,0,1-.47.48A20.15,20.15,0,0,1,252.17,138.88Zm-.14-50c-5.34,0-9.86,2.37-13.41,7a27.46,27.46,0,0,0-5.57,17.4,27.59,27.59,0,0,0,5.53,17.47,16.42,16.42,0,0,0,13.59,6.91,18.42,18.42,0,0,0,3.22-.41V119a9.23,9.23,0,0,1-3.5.85,4.17,4.17,0,0,1-3.48-1.83,7.23,7.23,0,0,1-1.24-4.42,7.44,7.44,0,0,1,1.43-4.43,4.55,4.55,0,0,1,3.62-2,4.21,4.21,0,0,1,3.73,2.2,10.32,10.32,0,0,1,1.24,5.47v21.72H271V113.69c0-7.46-1.74-13.67-5.15-18.22A16.51,16.51,0,0,0,252,88.87Zm.14,19.6a3.31,3.31,0,0,0-2.64,1.48,6.22,6.22,0,0,0-1.18,3.73,6,6,0,0,0,1.06,3.73,2.93,2.93,0,0,0,2.48,1.33,9.33,9.33,0,0,0,3.83-1.12.53.53,0,0,1,.25,0v-2.56a9.1,9.1,0,0,0-1.12-4.82A3,3,0,0,0,252.17,108.47Z" fill="#231f20"/><path d="M296.64,138.88c-5.78,0-10.64-2.56-14.46-7.62a29.51,29.51,0,0,1-5.83-18.39,28.18,28.18,0,0,1,5.91-17.81c3.84-5,8.62-7.46,14.24-7.46a17.07,17.07,0,0,1,12.9,5.87,28.69,28.69,0,0,1,6.89,15.93.75.75,0,0,1-.14.48.63.63,0,0,1-.45.22l-14.91.68a.58.58,0,0,1-.56-.31c-1-1.76-2.23-2.67-3.59-2.67a3.22,3.22,0,0,0-2.73,1.43,7.39,7.39,0,0,0,.07,7.9,3.4,3.4,0,0,0,2.88,1.51c1.64,0,2.91-1.57,3.73-4.66a.61.61,0,0,1,.57-.45c2.49-.13,5-.24,7.46-.34l7.21-.32a.6.6,0,0,1,.46.17.65.65,0,0,1,.17.48c-.4,7.73-2.42,13.75-6.21,18.4A17,17,0,0,1,296.64,138.88Zm-.14-50c-5.22,0-9.68,2.33-13.27,7a27,27,0,0,0-5.65,17.05,27.94,27.94,0,0,0,5.58,17.65c3.57,4.73,8.11,7.13,13.48,7.13a15.83,15.83,0,0,0,12.81-6.49c3.5-4.31,5.43-9.88,5.89-17l-6.52.28-7.06.33c-1.05,3.4-2.66,5.13-4.84,5.13a4.64,4.64,0,0,1-3.86-2,7.53,7.53,0,0,1-1.43-4.72A7.29,7.29,0,0,1,293,108.5a4.39,4.39,0,0,1,3.73-1.91c1.24,0,2.94.53,4.46,3l13.81-.63a27.15,27.15,0,0,0-6.47-14.61,15.88,15.88,0,0,0-12-5.46Z" fill="#231f20"/></g><g id="1f59e615-8ddb-4893-bcb7-d35bb3a698ad" data-name="Reg"><path d="M300.71,77.48a7,7,0,0,1,7-7,7,7,0,0,1,7,7,7,7,0,0,1-3.46,6.06,7,7,0,0,1-10.62-6.06Zm1,0a6,6,0,0,0,9.08,5.24,6.06,6.06,0,0,0,2.21-2.2,6,6,0,0,0,0-6.06,6.11,6.11,0,0,0-2.21-2.22,6,6,0,0,0-6.06,0,6.06,6.06,0,0,0-2.21,2.2A5.85,5.85,0,0,0,301.69,77.48Zm8.91-1.7a2.24,2.24,0,0,1-.4,1.32,2.36,2.36,0,0,1-1.11.86l2.22,3.69h-1.57l-1.94-3.31h-1.26v3.31h-1.39V73.31h2.45a3.57,3.57,0,0,1,2.28.61A2.31,2.31,0,0,1,310.6,75.78Zm-4.06,1.41h1a1.77,1.77,0,0,0,1.2-.39,1.23,1.23,0,0,0,.46-1,1.18,1.18,0,0,0-.4-1,2.1,2.1,0,0,0-1.28-.31h-1Z"/></g></g></svg>