<svg xmlns="http://www.w3.org/2000/svg" xmlns:xlink="http://www.w3.org/1999/xlink" viewBox="0 0 800 800"><defs><linearGradient id="db040589-5f6d-41b0-aefd-d43ca182d712" x1="77.82" y1="540.16" x2="799.58" y2="540.16" gradientUnits="userSpaceOnUse"><stop offset="0" stop-color="#668eb0"/><stop offset="0.3" stop-color="#6990b1"/><stop offset="0.48" stop-color="#7195b3"/><stop offset="0.64" stop-color="#7f9db7"/><stop offset="0.77" stop-color="#94aabd"/><stop offset="0.89" stop-color="#aebac4"/><stop offset="1" stop-color="#ccc"/></linearGradient></defs><title>fuel-icon-red</title><g style="isolation:isolate"><g id="5f391afd-f079-4cfe-a947-5507ae823d80" data-name="Fuel Red"><g id="941e1e24-93d7-4e3a-a106-e1a6351d2e0d" data-name="4"><rect x="0.42" width="799.16" height="800" fill="#e31b23"/><path d="M799.58,625.62V800H442.88C402,756.69,352.77,697.29,350.63,696.57c-3.57-1.23-14.29-81.85-14.29-81.85l-258.45-261C76.67,351.27,91,321.24,91,321.24l131-40.92s122.62,2.38,120.26,1.22c2.65,0,138.12,32.48,138.12,32.48L606.65,441.49l19.08,8.45,40.45,40.92Z" opacity="0.31" fill="url(#db040589-5f6d-41b0-aefd-d43ca182d712)" style="mix-blend-mode:multiply"/><g id="ccae4c12-22a1-486f-94d0-a641c400dd09" data-name="4"><path d="M489.93,694.36c-17.75-16.33-48.94-13-69.85-11-189.38,18.08-138.2-226.09,82.39-103.29,36.35,20.23,70.67,39.33,106.88,32.23,27.43-5.39,100.43-52.71-53.13-154.48-8.88-5.89-17.28-11.45-24.78-16.83l19.2-26.75C595,446.1,674.54,486.67,683.38,553.2c5.48,41.28-25.52,83.15-67.69,91.42-71.24,14-130.37-44.94-185.16-62.67-103-33.36-140,80.72-13.57,68.66,22.59-2.15,66.05-7.36,95.26,19.53Z" fill="#263238"/><path d="M323.28,269.84l-5.6,42-115.35-1.72c-32.71-.47-101.62,29.3-126,41.7C67,330.38,69.87,337,63.11,321.68,93.4,305.21,167,267.46,208,268.11l101.27,1.51Z" fill="#37474f"/><path d="M309.25,269.62l-3,22.09L191,290c-31.52-.5-99.14,32-122.35,44.13l-5.49-12.44C93.4,305.21,167,267.46,208,268.11Z" fill="#455a64"/><path d="M415.76,422.19a10.1,10.1,0,0,1,1.2.48c1.26.61,1.13.55,1.66.83s1.75,1,2.26,1.34c1.19.76,2.4,1.48,3.61,2.21,17.53,10.75,41.26,22.47,50.64,42,3.45,7.18,4.92,18.45.86,25.76-2,3.58-9.14,13.71-13.89,10.35-4.19-3-.41-10.39.79-13.95,4.61-13.67-4.49-21.36-14.84-28.11-9-5.9-18.49-11.17-27.85-16.54-4.46-2.56-57.72,14.61-58.28,14.34-.12-.07,11.45-11.55,11.47-11.54-11.57-3.3,29.93-30.74,41.52-27.43C415.23,422,415.45,422.08,415.76,422.19Z" fill="#263238"/><path d="M450.19,356.8c-.18.26-.35.5-.55.75l-17.17,22.11L373,456.18l-1.65,2.13-11.13,14.32-31.11-23.08c-18.85-14-53.2-56.73-48.24-82.38l14-37.93-69.27-4.83,1.76-10.7.14-.83,3.76-22.55,4.85-29.18s56.9-7.36,104.25-7.56c28.88-.11,56.19,8.25,78.85,24.17l25.51,17.94C458,305,463,322.09,458.9,338.55A50.26,50.26,0,0,1,450.19,356.8Z" fill="#f9af0b"/><path d="M578.43,422.56,483.6,355.91c-12.74-9-21-22.63-24.31-37.84a36.53,36.53,0,0,0-14.58-22.37L419.2,277.76c-22.66-15.92-50-24.28-78.85-24.17-47.35.2-104.25,7.56-104.25,7.56l-4.85,29.18-3.76,22.55-.14.83,84,5.23-14,37.93c-5,25.64,29.39,68.38,48.25,82.38l25.69,19.06,5.41,4,12.78-16.45L438,383.54h0l112.25,78.89Z" fill="#ffc425"/><path d="M368.78,457.52l-9.85,13.94L458,541.1c.45.31.9.61,1.37.89,7.3,4.33,17.05,2.84,25.61-2.8Z" fill="#263238"/><path d="M496.18,528.3l49.18-69.55L426.81,375.44l-58,82.08L485,539.19A41.94,41.94,0,0,0,496.18,528.3ZM453.1,513l-68-47.75,44.62-63.11L496,448.25c8,5.5,9.75,17.68,4.21,29.29l-10.33,21.65C482.59,514.53,464.78,521.23,453.1,513Z" fill="#37474f"/><g style="mix-blend-mode:overlay"><path d="M578.43,422.56l-11.5,16.27L379.51,307.12c-20.74-14.57-46-21.68-72.56-20.41l-75.7,3.62,4.85-29.18s56.9-7.36,104.25-7.56c28.88-.11,56.19,8.25,78.85,24.17l25.51,17.94a36.42,36.42,0,0,1,14.5,22c3.54,15.4,11.76,29.32,24.69,38.4Z" fill="#bdbdbd"/></g><polygon points="569.38 474.66 550.82 461.61 576.7 425 595.27 438.05 569.38 474.66" fill="#455a64"/><path d="M389.11,363.77a32.58,32.58,0,1,1-38-26.1A32.58,32.58,0,0,1,389.11,363.77Z" fill="#b0bec5" style="mix-blend-mode:overlay"/><path d="M78.79,309.59a4.24,4.24,0,0,0-5.6-1.49,3.77,3.77,0,0,0-1.52,5.31l20.14,33.51a4.25,4.25,0,0,0,5.61,1.48,3.77,3.77,0,0,0,1.52-5.3Z" fill="#4b6068"/><path d="M100.19,297.75a4,4,0,0,0-5.56-1.4A4.2,4.2,0,0,0,93.24,302l20.55,35a4,4,0,0,0,5.56,1.4,4.22,4.22,0,0,0,1.39-5.69Z" fill="#4b6068"/><path d="M125.14,287a4.24,4.24,0,0,0-7.55,3.87l19.08,37.32a4.25,4.25,0,0,0,7.56-3.87Z" fill="#4b6068"/><path d="M151,277.79a4.25,4.25,0,0,0-7.93,3L158.14,320a4.25,4.25,0,0,0,7.93-3.06Z" fill="#4b6068"/><path d="M175.67,271.88a4.25,4.25,0,0,0-8.19,2.29l11.26,40.37a4.25,4.25,0,0,0,8.18-2.28Z" fill="#4b6068"/><path d="M205,266.55a4.18,4.18,0,0,0-4.73-3.44h-.06a4,4,0,0,0-3.6,4.5l6,42.67a4.17,4.17,0,0,0,4.73,3.43h0a4,4,0,0,0,3.61-4.5Z" fill="#4b6068"/></g></g></g></g></svg>