<svg xmlns="http://www.w3.org/2000/svg" xmlns:xlink="http://www.w3.org/1999/xlink" viewBox="0 0 800 800"><defs><linearGradient id="38944266-7a53-4473-ba6e-091534f594ce" x1="78.23" y1="540.16" x2="800" y2="540.16" gradientUnits="userSpaceOnUse"><stop offset="0" stop-color="#668eb0"/><stop offset="0.3" stop-color="#6990b1"/><stop offset="0.48" stop-color="#7195b3"/><stop offset="0.64" stop-color="#7f9db7"/><stop offset="0.77" stop-color="#94aabd"/><stop offset="0.89" stop-color="#aebac4"/><stop offset="1" stop-color="#ccc"/></linearGradient></defs><title>fuel-icon-yellow</title><g style="isolation:isolate"><g id="69d87fce-627a-46ad-8f82-d32efc2ae99c" data-name="Fuel Yellow"><g id="c459fd11-814c-4e52-96f7-4e0a7fc2daa6" data-name="4"><rect x="0.84" width="799.16" height="800" fill="#ffc425"/><path d="M800,625.62V800H443.3c-40.87-43.31-90.11-102.71-92.25-103.43-3.57-1.23-14.29-81.85-14.29-81.85l-258.45-261c-1.22-2.45,13.07-32.48,13.07-32.48l131.05-40.92s122.62,2.38,120.26,1.22c2.64,0,138.12,32.48,138.12,32.48L607.07,441.49l19.08,8.45,40.44,40.92Z" opacity="0.31" fill="url(#38944266-7a53-4473-ba6e-091534f594ce)" style="mix-blend-mode:multiply"/><g id="c90c3274-e77d-4258-a18b-3a3e32cf1250" data-name="4"><path d="M490.35,694.36c-17.75-16.33-48.94-13-69.85-11-189.38,18.08-138.2-226.09,82.39-103.29,36.35,20.23,70.67,39.33,106.88,32.23,27.43-5.39,100.42-52.71-53.13-154.48-8.89-5.89-17.28-11.45-24.78-16.83l19.2-26.75C595.42,446.1,675,486.67,683.8,553.2c5.48,41.28-25.52,83.15-67.69,91.42C544.87,658.57,485.73,599.68,431,582c-103-33.36-140,80.72-13.57,68.66,22.59-2.15,66.05-7.36,95.26,19.53Z" fill="#263238"/><path d="M323.7,269.84l-5.6,42-115.35-1.72c-32.71-.47-101.63,29.3-125.95,41.7-9.42-21.47-6.52-14.86-13.27-30.17,30.29-16.47,103.9-54.22,144.87-53.57l101.26,1.51Z" fill="#37474f"/><path d="M309.66,269.62l-3,22.09L191.37,290c-31.52-.5-99.14,32-122.35,44.13l-5.49-12.44c30.29-16.47,103.9-54.22,144.87-53.57Z" fill="#455a64"/><path d="M416.18,422.19a10.1,10.1,0,0,1,1.2.48c1.26.61,1.13.55,1.66.83s1.75,1,2.26,1.34c1.19.76,2.4,1.48,3.6,2.21,17.54,10.75,41.27,22.47,50.64,42,3.46,7.18,4.93,18.45.87,25.76-2,3.58-9.14,13.71-13.89,10.35-4.19-3-.41-10.39.79-13.95,4.6-13.67-4.49-21.36-14.84-28.11-9-5.9-18.49-11.17-27.86-16.54-4.45-2.56-57.71,14.61-58.27,14.34-.12-.07,11.44-11.55,11.46-11.54-11.56-3.3,29.93-30.74,41.53-27.43C415.65,422,415.87,422.08,416.18,422.19Z" fill="#263238"/><path d="M450.61,356.8c-.18.26-.35.5-.55.75l-17.18,22.11-59.44,76.52-1.65,2.13-11.13,14.32-31.11-23.08c-18.85-14-53.21-56.73-48.24-82.38l14-37.93L226,324.41l1.76-10.7.14-.83,3.75-22.55,4.86-29.18s56.9-7.36,104.25-7.56c28.88-.11,56.19,8.25,78.85,24.17l25.51,17.94c13.3,9.34,18.26,26.39,14.19,42.85A50.42,50.42,0,0,1,450.61,356.8Z" fill="#af0e29"/><path d="M578.85,422.56,484,355.91c-12.74-9-21-22.63-24.31-37.84a36.53,36.53,0,0,0-14.58-22.37l-25.51-17.94c-22.66-15.92-50-24.28-78.85-24.17-47.35.2-104.25,7.56-104.25,7.56l-4.86,29.18-3.75,22.55-.14.83,84,5.23-14,37.93c-5,25.64,29.39,68.38,48.24,82.38l25.7,19.06,5.41,4L390,445.88l48.43-62.34h0l112.25,78.89Z" fill="#ce1b31"/><path d="M369.2,457.52l-9.86,13.94,99.09,69.64c.46.31.91.61,1.38.89,7.29,4.33,17,2.84,25.61-2.8Z" fill="#263238"/><path d="M496.6,528.3l49.18-69.55L427.23,375.44l-58,82.08,116.22,81.67A42.09,42.09,0,0,0,496.6,528.3ZM453.52,513l-67.95-47.75,44.62-63.11,66.26,46.1c8,5.5,9.75,17.68,4.21,29.29l-10.33,21.65C483,514.53,465.2,521.23,453.52,513Z" fill="#37474f"/><g style="mix-blend-mode:overlay"><path d="M578.85,422.56l-11.5,16.27L379.93,307.12c-20.74-14.57-46-21.68-72.56-20.41l-75.71,3.62,4.86-29.18s56.9-7.36,104.25-7.56c28.88-.11,56.19,8.25,78.85,24.17l25.51,17.94a36.46,36.46,0,0,1,14.5,22c3.53,15.4,11.76,29.32,24.69,38.4Z" fill="#bdbdbd"/></g><polygon points="569.8 474.66 551.24 461.61 577.12 425 595.69 438.05 569.8 474.66" fill="#455a64"/><path d="M389.53,363.77a32.58,32.58,0,1,1-38-26.1A32.58,32.58,0,0,1,389.53,363.77Z" fill="#b0bec5" style="mix-blend-mode:overlay"/><path d="M79.21,309.59a4.24,4.24,0,0,0-5.6-1.49,3.77,3.77,0,0,0-1.52,5.31l20.14,33.51a4.24,4.24,0,0,0,5.6,1.48,3.77,3.77,0,0,0,1.53-5.3Z" fill="#4b6068"/><path d="M100.6,297.75a4,4,0,0,0-5.55-1.4A4.2,4.2,0,0,0,93.66,302l20.55,35a4,4,0,0,0,5.56,1.4,4.2,4.2,0,0,0,1.38-5.69Z" fill="#4b6068"/><path d="M125.56,287a4.25,4.25,0,0,0-7.56,3.87l19.09,37.32a4.25,4.25,0,0,0,7.56-3.87Z" fill="#4b6068"/><path d="M151.41,277.79a4.24,4.24,0,0,0-7.92,3L158.56,320a4.25,4.25,0,0,0,7.93-3.06Z" fill="#4b6068"/><path d="M176.08,271.88a4.25,4.25,0,1,0-8.18,2.29l11.26,40.37a4.25,4.25,0,1,0,8.18-2.28Z" fill="#4b6068"/><path d="M205.4,266.55a4.17,4.17,0,0,0-4.72-3.44h-.06a4,4,0,0,0-3.6,4.5l6,42.67a4.17,4.17,0,0,0,4.73,3.43h.05a4,4,0,0,0,3.61-4.5Z" fill="#4b6068"/></g></g></g></g></svg>