<svg xmlns="http://www.w3.org/2000/svg" xmlns:xlink="http://www.w3.org/1999/xlink" viewBox="0 0 800 800"><defs><linearGradient id="9c993c80-58cc-42ab-8464-23750ea943a4" x1="77" y1="543.16" x2="798.82" y2="543.16" gradientUnits="userSpaceOnUse"><stop offset="0" stop-color="#668eb0"/><stop offset="0.3" stop-color="#6990b1"/><stop offset="0.48" stop-color="#7195b3"/><stop offset="0.64" stop-color="#7f9db7"/><stop offset="0.77" stop-color="#94aabd"/><stop offset="0.89" stop-color="#aebac4"/><stop offset="1" stop-color="#ccc"/></linearGradient></defs><title>store-icon</title><g style="isolation:isolate"><g id="c59e3690-93bb-490a-b661-2bb4dec3cd61" data-name="Store"><rect width="800" height="800" fill="#e31b23"/><path d="M798.82,624.65V799l-287.07,1L77,615c-.1-.21,107.56-5.33,107.53-13.14-.09-26.93.19-85.86.19-85.86V286.32H615.28l-.53,207.32Z" opacity="0.31" fill="url(#9c993c80-58cc-42ab-8464-23750ea943a4)" style="mix-blend-mode:multiply"/><path d="M608.78,493.9a49.22,49.22,0,0,0-49.22,49.23v64.48H658V543.13A49.23,49.23,0,0,0,608.78,493.9Z" fill="#388e3c"/><circle cx="668.62" cy="567.05" r="34.38" fill="#2e7d32"/><circle cx="115.96" cy="578.56" r="22.87" transform="matrix(0.92, -0.39, 0.39, 0.92, -216.94, 91.37)" fill="#1b5e20"/><circle cx="166.66" cy="554.18" r="47.25" transform="translate(-410.85 591.13) rotate(-76.92)" fill="#2e7d32"/><rect x="77" y="588.77" width="646" height="26.27" fill="#434343"/><rect x="185.25" y="319.18" width="429.49" height="269.58" fill="#ff7043"/><path d="M616,572.46H575v16.31h45.67v-11.6A4.71,4.71,0,0,0,616,572.46Z" fill="#f5f5f5"/><rect x="454.33" y="393.79" width="120.67" height="194.97" fill="#3e2723"/><rect x="461.5" y="400.96" width="106.33" height="180.64" fill="#80cbc4"/><polygon points="567.83 445.66 567.83 456.74 512.05 400.96 523.13 400.96 567.83 445.66" fill="#b2dfdb"/><polygon points="567.83 554.56 567.83 565.63 461.5 459.3 461.5 448.23 567.83 554.56" fill="#b2dfdb"/><polygon points="567.83 462.63 567.83 484.79 484 400.96 506.16 400.96 567.83 462.63" fill="#b2dfdb"/><rect x="461.5" y="400.96" width="106.33" height="3.83" fill="#212121" opacity="0.2" style="mix-blend-mode:multiply"/><polygon points="454.33 545.32 454.33 588.77 497.78 588.77 454.33 545.32" fill="#212121" opacity="0.4" style="mix-blend-mode:multiply"/><path d="M479,478.63a4.59,4.59,0,1,1-4.58-4.59A4.58,4.58,0,0,1,479,478.63Z" fill="#e0e0e0"/><path d="M479,511.46a4.59,4.59,0,1,1-4.58-4.58A4.58,4.58,0,0,1,479,511.46Z" fill="#e0e0e0"/><path d="M474.38,475a2.63,2.63,0,0,0-2.63,2.63v34.75a2.63,2.63,0,0,0,5.25,0V477.67A2.63,2.63,0,0,0,474.38,475Z" fill="#f5f5f5"/><path d="M184,572.46H454.33a0,0,0,0,1,0,0v16.31a0,0,0,0,1,0,0h-275a0,0,0,0,1,0,0v-11.6A4.71,4.71,0,0,1,184,572.46Z" fill="#f5f5f5"/><rect x="184.72" y="302.13" width="430.57" height="7.9" fill="#bdbdbd"/><rect x="184.72" y="286.32" width="430.57" height="7.9" fill="#bdbdbd"/><rect x="190" y="294.22" width="420" height="7.9" fill="#ff7043"/><rect x="190" y="294.22" width="420" height="3.95" fill="#212121" opacity="0.4" style="mix-blend-mode:multiply"/><rect x="537.18" y="377.77" width="24.09" height="9.37" fill="#ff490f"/><rect x="567.61" y="377.77" width="24.09" height="9.37" fill="#ff490f"/><rect x="552.49" y="362.18" width="24.09" height="9.37" fill="#ff490f"/><rect x="579.65" y="509.24" width="24.09" height="9.37" fill="#ff490f"/><rect x="594.96" y="493.64" width="24.09" height="9.37" fill="#ff490f"/><rect x="225.02" y="377.77" width="24.09" height="9.37" fill="#ff490f"/><rect x="255.44" y="377.77" width="24.09" height="9.37" fill="#ff490f"/><rect x="240.33" y="362.18" width="24.09" height="9.37" fill="#ff490f"/><rect x="270.75" y="362.18" width="24.09" height="9.37" fill="#ff490f"/><rect x="298.11" y="555.69" width="24.09" height="9.37" transform="translate(620.31 1120.75) rotate(180)" fill="#ff490f"/><rect x="387.95" y="540.09" width="24.09" height="9.37" transform="translate(800 1089.55) rotate(180)" fill="#ff490f"/><rect x="267.69" y="555.69" width="24.09" height="9.37" transform="translate(559.46 1120.75) rotate(180)" fill="#ff490f"/><rect x="282.8" y="540.09" width="24.09" height="9.37" transform="translate(589.69 1089.55) rotate(180)" fill="#ff490f"/><rect x="252.38" y="540.09" width="24.09" height="9.37" transform="translate(528.85 1089.55) rotate(180)" fill="#ff490f"/><rect x="181.23" y="458.91" width="17.41" height="9.37" fill="#ff490f"/><rect x="192.29" y="443.31" width="17.41" height="9.37" fill="#ff490f"/><path d="M575,421.33a1.81,1.81,0,0,0-1.8,1.8v13.71a1.8,1.8,0,0,0,3.6,0V423.13A1.81,1.81,0,0,0,575,421.33Z" fill="#f5f5f5"/><path d="M575,543.92a1.8,1.8,0,0,0-1.8,1.8v13.71a1.8,1.8,0,0,0,3.6,0V545.72A1.8,1.8,0,0,0,575,543.92Z" fill="#f5f5f5"/><rect x="382.52" y="377.77" width="12.05" height="9.37" fill="#ff490f"/><rect x="396.27" y="362.18" width="12.05" height="9.37" fill="#ff490f"/><rect x="364.03" y="362.18" width="24.09" height="9.37" fill="#ff490f"/><rect x="201.86" y="539.44" width="12.05" height="9.37" fill="#ff490f"/><rect x="181.37" y="523.84" width="24.09" height="9.37" fill="#ff490f"/><rect x="583.5" y="447.6" width="17.39" height="9.37" fill="#ff490f"/><rect x="423.5" y="418.25" width="12.16" height="9.37" fill="#ff490f"/><rect x="429.58" y="431.76" width="12.16" height="9.37" fill="#ff490f"/><path d="M224.16,344a25.12,25.12,0,0,0,25.12,25.12h0A25.12,25.12,0,0,0,274.4,344V328.34H224.16Z" fill="#e0e0e0"/><path d="M324.64,344a25.12,25.12,0,0,0,25.12,25.12h0A25.12,25.12,0,0,0,374.88,344V328.34H324.64Z" fill="#e0e0e0"/><path d="M425.12,344a25.12,25.12,0,0,0,25.12,25.12h0A25.12,25.12,0,0,0,475.36,344V328.34H425.12Z" fill="#e0e0e0"/><path d="M525.6,328.34V344a25.12,25.12,0,0,0,25.12,25.12h0A25.12,25.12,0,0,0,575.84,344V328.34Z" fill="#e0e0e0"/><polygon points="224.16 328.34 274.4 328.34 280.4 310.03 232.56 310.03 224.16 328.34" fill="#eee"/><polygon points="324.64 328.34 374.88 328.34 376.08 310.03 328.24 310.03 324.64 328.34" fill="#eee"/><polygon points="423.92 310.03 425.12 328.34 475.36 328.34 471.76 310.03 423.92 310.03" fill="#eee"/><polygon points="567.44 310.03 519.6 310.03 525.6 328.34 575.84 328.34 567.44 310.03" fill="#eee"/><path d="M173.91,344A25.12,25.12,0,0,0,199,369.13h0A25.12,25.12,0,0,0,224.16,344V328.34H173.91Z" fill="#e31b23"/><path d="M274.4,344a25.12,25.12,0,0,0,25.12,25.12h0A25.12,25.12,0,0,0,324.64,344V328.34H274.4Z" fill="#e31b23"/><path d="M374.88,344a25.12,25.12,0,0,0,50.24,0V328.34H374.88Z" fill="#e31b23"/><path d="M475.36,344a25.12,25.12,0,0,0,25.12,25.12h0A25.12,25.12,0,0,0,525.6,344V328.34H475.36Z" fill="#e31b23"/><path d="M575.84,328.34V344A25.12,25.12,0,0,0,601,369.13h0A25.12,25.12,0,0,0,626.09,344V328.34Z" fill="#e31b23"/><polygon points="173.91 328.34 224.16 328.34 232.56 310.03 184.72 310.03 173.91 328.34" fill="#dc394d"/><polygon points="274.4 328.34 324.64 328.34 328.24 310.03 280.4 310.03 274.4 328.34" fill="#dc394d"/><polygon points="376.08 310.03 374.88 328.34 425.12 328.34 423.92 310.03 376.08 310.03" fill="#dc394d"/><polygon points="471.76 310.03 475.36 328.34 525.6 328.34 519.6 310.03 471.76 310.03" fill="#dc394d"/><polygon points="615.28 310.03 567.44 310.03 575.84 328.34 626.09 328.34 615.28 310.03" fill="#dc394d"/><rect x="189.93" y="393.79" width="12.77" height="9.37" fill="#ff490f"/><rect x="219.09" y="395.79" width="204.41" height="124" fill="#3e2723"/><rect x="226.26" y="402.96" width="190.08" height="109.67" fill="#80cbc4"/><polygon points="416.33 435.32 416.33 452.29 367 402.96 383.97 402.96 416.33 435.32" fill="#b2dfdb"/><polygon points="416.33 457.01 416.33 465.49 353.8 402.96 362.29 402.96 416.33 457.01" fill="#b2dfdb"/><polygon points="416.33 495.66 416.33 512.63 399.36 512.63 289.69 402.96 323.63 402.96 416.33 495.66" fill="#b2dfdb"/><rect x="226.26" y="402.96" width="190.08" height="3.83" fill="#212121" opacity="0.2" style="mix-blend-mode:multiply"/><rect x="208.45" y="519.79" width="225.69" height="23.33" fill="#fafbfb"/><path d="M420.15,506.13H222.44a9.48,9.48,0,0,0-9.48,9.48v4.18H429.63v-4.18A9.47,9.47,0,0,0,420.15,506.13Z" fill="#2e7d32"/><rect x="208.45" y="519.79" width="225.69" height="5" fill="#eee"/><path d="M429.61,515.13H213c0,.16,0,.32,0,.48v4.18H429.63v-4.18C429.63,515.45,429.61,515.29,429.61,515.13Z" fill="#1b5e20"/><polygon points="454.33 539.98 454.33 588.77 254.09 588.77 208.45 543.13 434.14 543.13 434.14 519.79 454.33 539.98" fill="#212121" opacity="0.4" style="mix-blend-mode:multiply"/><path d="M516.88,185H283.12c-3.65,0-6.62,5.63-6.62,12.57v68.54c0,6.95,3,12.58,6.62,12.58H516.88c3.65,0,6.62-5.63,6.62-12.58V197.53C523.5,190.59,520.53,185,516.88,185Z" fill="#3e2723"/><path d="M512.36,192.39H287.64c-2.28,0-4.14,3.62-4.14,8.08v62.67c0,4.46,1.86,8.08,4.14,8.08H512.36c2.28,0,4.14-3.62,4.14-8.08V200.47C516.5,196,514.64,192.39,512.36,192.39Z" fill="#e31b23"/><path d="M516.5,200.47v.9h-233v-.9c0-4.46,1.85-8.08,4.14-8.08H512.36C514.65,192.39,516.5,196,516.5,200.47Z" fill="#212121" opacity="0.2" style="mix-blend-mode:multiply"/><rect x="283.5" y="278.65" width="4.75" height="7.67" fill="#212121"/><rect x="511.75" y="278.65" width="4.75" height="7.67" fill="#212121"/><g id="16fa176c-2bb5-474a-8f08-eebc25625632" data-name="Flag"><path d="M409.82,220.18c-11.1,2.51-32.15-1.05-32.15-1.05L375,212.79c-10.53-6.5-25-7-33.82-6.52l-1.23-1.55-2.41-.86-2.6-.22-2.55.74,1,2.77-.53,3s1.41,3.66,3.93,11.81,3.27,16.11,3.54,16.84a20.1,20.1,0,0,0,1.7,2.66l.22,2.87.46.87,1.2,17.91.67-.17-1.22-19.76,1.39-.13,1.07,19.58,1.1-.28.75-21.32c12.44-3.51,28.09-2.93,28.09-2.93l-.82,2.57a9.12,9.12,0,0,0,4.84,4.86c10.19,3.74,19.92,3.49,26.6,2.74,4.27-.48,7.78-1.13,7.78-1.13C406.43,229.54,409.82,220.18,409.82,220.18ZM406.61,222l.6,1.88-.26,2.83-5.8.07-1.29-4.18A48,48,0,0,0,406.61,222Zm-19.5,4.34-2.38-4.49,7.67.38,1.35,4.55s-.8,0-1.87-.06h0c-.86,0-1.71-.08-2.56-.15s-1.61-.14-2.18-.24h0l1.05,2,1.19,3.15h0l-.74,0-2.27-.16-2.27-2.09L380.85,225l6.27,1.31h0Zm-7.23,2.26h0l.39.11,2.1.63.07,0,.45.15,8,6.94.82.89-.14.63h0l-1.25-1.34L387,234l-.14,0-.2,0h0l-4.19-.66-2.37-3L378,228.16A11.44,11.44,0,0,1,379.88,228.6ZM355.38,213l4.86.86-3.3-5.52,4.38.58,4.91,1.1,3,5.4,2.59.53.4.24v0l1.72,1,1.73,1a25.18,25.18,0,0,1,2.77,5h0v0a23.3,23.3,0,0,0-4.06-1.35h0c-.34-.08-.67-.14-1-.2l-4.15-6.29-4.16-1-4.82-.57,3.23,6.26-6.59-.59-4.12.37s-2.67-5.1-3.49-6.63Zm-20.88-6.14-.72-1.84.69-.58,1.41.12,2.44,1.9C336.66,206.61,335.35,206.76,334.5,206.87Zm2.21,8.21h0l1.5-.76,3-.16-1.44-3.82-1.35-2.45s5.13-.58,8.52-.59l2.35,6-4.34-.2-3.73,1.07,3.28,6.21h0l-5.61,1.2Zm9.46,18.41-3.87,2.15-.26-4.43L341,228.62l2.86-1.18,3.42-.72s.8,3.49,1.66,6.54Zm10.91,3L351,238.08h0L349.64,236l-.45-2.32,4.74-2,5.83.09h0l1,2.2,1.21,2.64Zm6.8-5.37-4.12.66a40.26,40.26,0,0,1-3.28-5.71l-5.88-.14-3.33.78-2-6,2.4-.71,1.9-.05h0l3.13-.08,2.21,3.73h0l1,1.75h6.75l4.42.53-3.7-5.79,4.29.43,5,1.24s2.12,3.52,3.76,5.69l-3.71-.87-5.6-.7,4.13,5.61-7-.47-.46.07Zm16.6,13-2.33-2.44-.63-1.1,1.21-.68,2.71,2.75-.06,2.11Zm1.38-5.8-1.18.5h0l-1.07.46-.86-1.25,1.78,0,1.33.25Zm-.48-1.08-6.74-.83-.07-.1-3.27-4.79,6.11.76,5,1,2.39,3-.12,1.66Zm3.62,4.12-.91-2.64,5.4.83h0l.5.23h0l.42.19-1.95.83L387,241l-1.72.28h0Zm7.43,6.27-1.66.1-.56,0-3.6-.56-1.53-2.67,1-1.32,3.62.49,2.71,3.92h0ZM390.86,243l-.66-1.27h0l1.73-.5,1.79-1.29h0l2,2.93h0v0Zm5.44-5.61-3.64-.05-2.13-5.45,5.44.34-.72-2,0-.33L395,228h0l-.09-.86a51.46,51.46,0,0,0,6.2-.38,16.21,16.21,0,0,1,1.33,5c-1.35.27-6.5.39-6.5.39l2,5.22Zm7.55,5-3.25.3,1.92,4.61-4.16.32-1.89-4.53,4.13-.4L399.14,238l1.59.09h0l1.61.09,1.92-.31s-.86-3.23-.94-3.61-.28-2-.28-2l4.55-.12s.9,3.57,1.67,5.62l-4.62.68,1,3.76-1.83.17Zm8.26,3.91c-.48.05-4.24.24-4.24.24h0l-.47-1.17h0l-1-2.38,4.29-.28,2.54,3.39-1.13.19Z" fill="#fff"/><polygon points="393.72 239.91 391.93 241.2 393.72 239.91 393.72 239.91" fill="#e31b23"/><polygon points="389.72 243.7 392.42 247.62 392.43 247.62 389.72 243.7" fill="#e31b23"/><polygon points="352.75 219.91 349.62 219.99 354.96 223.64 352.75 219.91" fill="#e31b23"/><path d="M356.88,219.54l6.59.59-3.23-6.26-4.86-.86-6.11.27c.82,1.53,3.49,6.63,3.49,6.63Z" fill="#e31b23"/><polygon points="390.85 242.96 390.2 241.71 390.2 241.71 390.86 242.98 395.72 242.87 395.71 242.84 390.85 242.96" fill="#e31b23"/><polygon points="386.61 247.19 385.08 244.53 386.61 247.2 390.21 247.76 390.77 247.73 390.21 247.76 386.61 247.19" fill="#e31b23"/><polygon points="384.11 238.72 389.5 239.55 389.49 239.55 384.09 238.72 385 241.36 385.27 241.31 384.95 241.14 384.11 238.72" fill="#e31b23"/><polygon points="387.01 241.04 388.47 240.8 390.42 239.97 390 239.78 387.33 240.99 387.01 241.04" fill="#e31b23"/><polygon points="369.23 215.43 366.23 210.03 361.32 208.93 356.94 208.35 360.24 213.87 365.06 214.44 369.23 215.43" fill="#e31b23"/><path d="M407.87,246.53s3.76-.19,4.24-.24c-.48.05-4.19.24-4.24.24Z" fill="#e31b23"/><path d="M410.73,242.7l-4.29.28,1,2.38c1.89.28,4.35.41,5.67.47l.19.25s-.84.16-1.12.2l1.13-.19Z" fill="#e31b23"/><path d="M404.64,238.45l4.62-.68c-.77-2.05-1.67-5.62-1.67-5.62l-4.55.12s.21,1.59.28,2,.94,3.61.94,3.61l-1.92.31-1.61-.09,1.8,3.23,1.32,1.09,1.83-.17Z" fill="#e31b23"/><path d="M401.14,226.79a51.46,51.46,0,0,1-6.2.38l.09.86,1.24.52,1.42,1.86.52,1.72-2.24.08-.71-2,0-.32,0,.33.72,2s5.15-.12,6.5-.39A16.21,16.21,0,0,0,401.14,226.79Z" fill="#e31b23"/><path d="M340.54,212.44l1.77,1.39-1.13.32,3.29,6.22h0l-3.28-6.21,3.73-1.07,4.34.2-2.35-6c-3.39,0-8.52.59-8.52.59l1.35,2.45,1.44,3.82h0Z" fill="#e31b23"/><polygon points="336.71 215.08 338.86 221.57 336.72 215.07 336.71 215.08" fill="#e31b23"/><polygon points="361.96 236.61 357.07 236.48 351.02 238.07 351.02 238.08 357.08 236.49 361.97 236.62 360.76 233.98 361.96 236.61" fill="#e31b23"/><polygon points="380.53 238.07 378.75 238.03 379.61 239.28 380.68 238.82 379.36 238.04 380.54 238.07 381.86 238.31 381.86 238.31 380.53 238.07" fill="#e31b23"/><path d="M382.44,229.36l.45.15Z" fill="#e31b23"/><polygon points="371.3 231.52 367.17 225.91 362.75 225.38 357.51 225.39 361.74 228.28 363.88 231.13 364.34 231.05 371.3 231.52" fill="#e31b23"/><path d="M380.27,228.71l2.1.63Z" fill="#e31b23"/><polygon points="388.63 231.46 389.37 231.5 389.36 231.49 389.37 231.5 388.63 231.46" fill="#e31b23"/><polygon points="386.83 233.98 386.97 234 386.97 234 386.83 233.98" fill="#e31b23"/><path d="M382.44,233.29l4.19.66-6.75-5.35a11.44,11.44,0,0,0-1.87-.44l2.06,2.11Z" fill="#e31b23"/><path d="M378.42,223.26h0a25.18,25.18,0,0,0-2.77-5l-1.73-1,1.73,1.05A24.36,24.36,0,0,1,378.42,223.26Z" fill="#e31b23"/><path d="M374.37,221.92l-1.93-4.14-.23-1.58-.4-.24-2.59-.53,4.15,6.29C373.7,221.78,374,221.84,374.37,221.92Z" fill="#e31b23"/><polygon points="387.12 226.34 387.12 226.34 380.85 225.03 384.09 229.21 380.85 225.04 387.12 226.34" fill="#e31b23"/><polygon points="391.6 237.96 391.61 237.97 391.75 237.34 390.93 236.45 391.75 237.33 391.6 237.96" fill="#e31b23"/><polygon points="359.76 231.78 353.93 231.69 359.76 231.78 359.76 231.78" fill="#e31b23"/><path d="M389.33,226.58c-.73-.06-1.45-.14-2.18-.24C387.72,226.44,388.5,226.52,389.33,226.58Z" fill="#e31b23"/><path d="M407,226.71l.26-2.83-.6-1.88a48,48,0,0,1-6.75.6l1.29,4.18Z" fill="#e31b23"/><path d="M376.48,227.48c-1.64-2.17-3.76-5.69-3.76-5.69l-5-1.24-4.29-.43,3.7,5.79,5.6.7Z" fill="#e31b23"/><path d="M377.93,235.59c.51,0,5.09.52,6.91.74l-2.39-3-5-1-6.11-.76,3.27,4.79-.15-.22A31.88,31.88,0,0,1,377.93,235.59Z" fill="#e31b23"/><path d="M391.88,226.72c1.07.05,1.87.06,1.87.06l-1.35-4.55-7.67-.38,2.38,4.49h0l-1.1-2.06Z" fill="#e31b23"/><polygon points="378.73 239.91 377.52 240.58 378.15 241.68 380.48 244.12 381.38 244.76 381.44 242.66 378.73 239.91" fill="#e31b23"/><path d="M384.84,236.33c-1.82-.22-6.4-.72-6.91-.74a31.88,31.88,0,0,0-3.51.5l.15.22.07.1,6.74.83,3.34.75Z" fill="#e31b23"/><polygon points="344.47 220.37 341.18 214.15 341.18 214.15 338.21 214.31 336.71 215.07 336.72 215.07 338.86 221.57 344.47 220.37 344.47 220.37" fill="#e31b23"/><polygon points="340.54 212.44 341.18 214.15 342.31 213.83 340.54 212.44" fill="#e31b23"/><polygon points="387.01 241.04 387.33 240.99 390 239.78 390 239.78 389.5 239.55 389.5 239.55 384.11 238.72 384.95 241.14 385.27 241.31 385.29 241.32 387.01 241.04" fill="#e31b23"/><path d="M343.84,227.44,341,228.62l1.06,2.59.26,4.43,3.87-2.15,2.75-.23c-.86-3-1.66-6.54-1.66-6.54Z" fill="#e31b23"/><polygon points="379.36 238.04 380.68 238.82 380.68 238.82 381.86 238.31 381.86 238.31 380.54 238.07 379.36 238.04" fill="#e31b23"/><path d="M357.51,225.39H356l-1-1.75h0L349.62,220h0l-1.9.05-2.4.71,2,6,3.33-.78,5.88.14a40.26,40.26,0,0,0,3.28,5.71l4.12-.66h0l-2.14-2.84Z" fill="#e31b23"/><polygon points="361.96 236.61 360.76 233.98 359.76 231.78 359.76 231.78 353.93 231.69 349.19 233.69 349.64 236.01 351.01 238.08 351.02 238.07 357.07 236.48 361.96 236.61" fill="#e31b23"/><polygon points="380.85 225.04 384.09 229.21 386.36 231.3 388.63 231.46 389.37 231.5 389.36 231.49 388.17 228.34 387.12 226.34 387.12 226.34 380.85 225.04" fill="#e31b23"/><path d="M374.37,221.92h0a23.3,23.3,0,0,1,4.06,1.35v0a24.36,24.36,0,0,0-2.76-5l-1.73-1.05-1.72-1v0l.23,1.58Z" fill="#e31b23"/><polygon points="400.73 238.06 400.73 238.06 399.14 237.97 400.6 242.68 403.86 242.38 403.85 242.38 402.54 241.29 400.73 238.06" fill="#e31b23"/><polygon points="395.71 242.84 395.72 242.84 393.72 239.91 393.72 239.91 391.93 241.2 390.2 241.7 390.2 241.71 390.85 242.96 395.71 242.84" fill="#e31b23"/><polygon points="398.37 247.61 402.52 247.29 400.6 242.68 396.47 243.08 398.37 247.61" fill="#e31b23"/><path d="M413.07,245.83c-1.32-.06-3.78-.19-5.67-.47h0l.47,1.17h0c.05,0,3.76-.19,4.24-.24h0c.28,0,1.12-.2,1.12-.2Z" fill="#e31b23"/><path d="M386.63,234l.2,0,.14,0h0l3.38,2.62L391.6,238h0l.15-.63-.82-.88-8-6.94-.45-.15-.07,0-2.1-.63-.39-.11h0l6.75,5.35Z" fill="#e31b23"/><path d="M396,232.21l2.24-.08-.52-1.72-1.42-1.86L395,228h0l.2,1.86,0,.32Z" fill="#e31b23"/><polygon points="390.53 231.87 392.66 237.32 396.3 237.37 397.98 237.43 395.97 232.21 390.53 231.87" fill="#e31b23"/><path d="M387.15,226.34c.73.1,1.45.18,2.18.24s1.7.12,2.56.15h0L386,224.28l1.1,2.06h0Z" fill="#e31b23"/><polygon points="386.1 243.21 385.08 244.53 386.61 247.19 390.21 247.76 390.77 247.73 392.43 247.63 392.42 247.62 389.72 243.7 386.1 243.21" fill="#e31b23"/><path d="M334.47,204.45l-.69.58.72,1.84c.85-.11,2.16-.26,3.82-.4l-2.44-1.9Z" fill="#e31b23"/></g><g id="0b2306d6-92fe-49f2-a2cc-5700f6682dcc" data-name="Fast"><polygon points="340.55 233.67 359.83 233.67 359.83 240.1 348.38 240.1 348.38 245.32 358.16 245.32 358.16 251.36 348.38 251.36 348.38 263.59 340.55 263.59 340.55 233.67" fill="#fff"/><path d="M369.75,254.94v7.72a9.34,9.34,0,0,1-1.59.2,7.19,7.19,0,0,1-5.86-2.81,11.57,11.57,0,0,1,0-14,7.22,7.22,0,0,1,5.78-2.87,7.29,7.29,0,0,1,6,2.72,11.4,11.4,0,0,1,2.17,7.28v9.27H370v-8.79a3.51,3.51,0,0,0-.54-2,1.53,1.53,0,0,0-1.33-.75,1.71,1.71,0,0,0-1.31.67,2.66,2.66,0,0,0-.54,1.63,2.48,2.48,0,0,0,.49,1.58,1.49,1.49,0,0,0,1.24.62,4.35,4.35,0,0,0,1.7-.46" fill="#fff"/><path d="M389.33,243.83v7.93c-.93,0-1.51.15-1.75.43a3.89,3.89,0,0,0-.46,1.89c-.26,3.62-1.63,6.21-4,7.76-.79.76-2.17,1.12-4.2,1.12h-1.09V255h.54a2.17,2.17,0,0,0,1.72-.57,4,4,0,0,0,.58-2.17,19.16,19.16,0,0,1,.45-4,6.42,6.42,0,0,1,1.34-2.39,5.89,5.89,0,0,1,4.81-2.06h2.05" fill="#fff"/><path d="M396.46,236.88v7H399v7.93h-2.52a4.45,4.45,0,0,0,.47,2.38c.32.47,1,.7,2.14.7v7.88c-.5,0-.83,0-1,0a6.9,6.9,0,0,1-3.76-1.12,8.31,8.31,0,0,1-2.83-3,13.67,13.67,0,0,1-1.33-6.44V236.88h6.28" fill="#fff"/><path d="M348.38,264h-7.85a.38.38,0,0,1-.38-.38h0V233.67a.38.38,0,0,1,.38-.37h19.29a.39.39,0,0,1,.39.39h0v6.41a.4.4,0,0,1-.39.39H348.77v4.44h9.39a.39.39,0,0,1,.39.38h0v6a.38.38,0,0,1-.38.39h-9.4v11.84a.38.38,0,0,1-.39.38Zm-7.44-.77h7V251.36a.39.39,0,0,1,.39-.38h9.39V245.7h-9.38a.39.39,0,0,1-.39-.38V240.1a.39.39,0,0,1,.39-.39h11.07v-5.66H340.94Z" fill="#e31b23"/><path d="M368.18,263.12a7.45,7.45,0,0,1-6.06-2.91,11.81,11.81,0,0,1,0-14.31,7.46,7.46,0,0,1,6-3,7.56,7.56,0,0,1,6.22,2.83,11.74,11.74,0,0,1,2.24,7.45v9.27a.27.27,0,0,1-.27.27H370a.28.28,0,0,1-.2.18A8.94,8.94,0,0,1,368.18,263.12Zm-.07-19.65a7,7,0,0,0-5.56,2.76,11.3,11.3,0,0,0,0,13.65,6.94,6.94,0,0,0,5.63,2.7,8.47,8.47,0,0,0,1.33-.16v-7.08a4.19,4.19,0,0,1-1.44.32,1.77,1.77,0,0,1-1.45-.72,2.67,2.67,0,0,1-.54-1.74,2.84,2.84,0,0,1,.59-1.77,1.94,1.94,0,0,1,1.51-.78,1.79,1.79,0,0,1,1.56.86,3.84,3.84,0,0,1,.54,2.17v8.51H376v-9a11.24,11.24,0,0,0-2.13-7.12,7,7,0,0,0-5.79-2.58Zm.07,7.72a1.39,1.39,0,0,0-1.08.57,2.33,2.33,0,0,0-.48,1.44,2.13,2.13,0,0,0,.43,1.41,1.22,1.22,0,0,0,1,.54,4.06,4.06,0,0,0,1.6-.43h.09v-1a3.27,3.27,0,0,0-.46-1.88A1.3,1.3,0,0,0,368.18,251.19Z" fill="#e31b23"/><path d="M379,263.23h-1.09a.28.28,0,0,1-.27-.27V255a.27.27,0,0,1,.27-.27h.55a1.88,1.88,0,0,0,1.5-.47,3.56,3.56,0,0,0,.54-2,21.2,21.2,0,0,1,.45-4,6.82,6.82,0,0,1,1.4-2.49,6.17,6.17,0,0,1,5-2.17h2a.27.27,0,0,1,.27.27v7.93a.27.27,0,0,1-.27.27c-1.15,0-1.45.23-1.53.33a3.25,3.25,0,0,0-.42,1.74c-.26,3.65-1.62,6.33-4.08,8C382.48,262.84,381.05,263.23,379,263.23Zm-.81-.55H379c2,0,3.29-.33,4-1h0c2.32-1.52,3.62-4.06,3.87-7.56a3.91,3.91,0,0,1,.54-2c.26-.33.8-.5,1.69-.55v-7.4h-1.78a5.63,5.63,0,0,0-4.59,2,5.86,5.86,0,0,0-1.29,2.29,19.34,19.34,0,0,0-.44,3.94,4.23,4.23,0,0,1-.64,2.32,2.38,2.38,0,0,1-1.93.67h-.29Z" fill="#e31b23"/><path d="M398.1,263a7.12,7.12,0,0,1-3.9-1.16,8.36,8.36,0,0,1-2.92-3.13,14,14,0,0,1-1.36-6.57V236.88a.25.25,0,0,1,.26-.26h6.28a.26.26,0,0,1,.27.26h0v6.68H399a.27.27,0,0,1,.26.27h0v7.93a.28.28,0,0,1-.26.28h-2.25a3.78,3.78,0,0,0,.42,2c.26.39.9.58,1.92.58a.27.27,0,0,1,.27.27v7.88a.26.26,0,0,1-.26.26l-.67,0Zm-7.65-25.88v15a13.55,13.55,0,0,0,1.3,6.32,7.94,7.94,0,0,0,2.71,2.93,6.62,6.62,0,0,0,3.62,1.08h.7v-7.4a2.44,2.44,0,0,1-2.1-.81,4.64,4.64,0,0,1-.54-2.53.27.27,0,0,1,.27-.26h2.25v-7.4h-2.25a.27.27,0,0,1-.27-.26h0v-6.68Z" fill="#e31b23"/></g><path d="M403.05,242.16h4.64a.27.27,0,0,1,.27.27v19.38h6.54V242.43a.27.27,0,0,1,.27-.27h4.62V234H403.05Z" fill="#fff"/><path d="M429.08,249.11a3.59,3.59,0,0,1,1.21.3v-8.2a11.81,11.81,0,0,0-1.87-.24,5.73,5.73,0,0,0-5,2.6,12.15,12.15,0,0,0-1.89,7.11v11.13h6v-9.67C427.56,250.13,428.07,249.11,429.08,249.11Z" fill="#fff"/><path d="M439.55,241h0a7.12,7.12,0,0,0-5.85,3.07,13.16,13.16,0,0,0,0,15.21,7.16,7.16,0,0,0,5.93,3,8.25,8.25,0,0,0,1.4-.18v-8a4,4,0,0,1-1.52.37,1.84,1.84,0,0,1-1.52-.8,3.08,3.08,0,0,1-.54-1.93,3.2,3.2,0,0,1,.62-1.93,2,2,0,0,1,1.58-.86,1.84,1.84,0,0,1,1.62,1,4.53,4.53,0,0,1,.55,2.39v9.48h6v-10a13,13,0,0,0-2.25-7.95A7.19,7.19,0,0,0,439.55,241Z" fill="#fff"/><path d="M467.16,252l-2.84.13-3.08.14c-.46,1.48-1.16,2.24-2.11,2.24a2,2,0,0,1-1.69-.87,3.3,3.3,0,0,1-.62-2.06,3.17,3.17,0,0,1,.6-2,2,2,0,0,1,1.63-.83A2.28,2.28,0,0,1,461,250l6-.27a11.81,11.81,0,0,0-2.82-6.37A6.89,6.89,0,0,0,459,241h0a7.14,7.14,0,0,0-5.8,3,11.83,11.83,0,0,0-2.46,7.44,12.2,12.2,0,0,0,2.44,7.7,7.12,7.12,0,0,0,5.87,3.11,6.89,6.89,0,0,0,5.59-2.83A12.65,12.65,0,0,0,467.16,252Z" fill="#fff"/><path d="M419.66,233.41H402.77a.27.27,0,0,0-.26.27v8.75h0a.27.27,0,0,0,.27.27h4.67v19.39h0a.27.27,0,0,0,.27.26h7a.27.27,0,0,0,.27-.26V242.7h4.62a.27.27,0,0,0,.27-.27v-8.75A.27.27,0,0,0,419.66,233.41Zm-.27,8.75h-4.62a.27.27,0,0,0-.27.27v19.38H408V242.43a.27.27,0,0,0-.27-.27h-4.64V234h16.34Z" fill="#e31b23"/><path d="M430.8,249.85V241a.28.28,0,0,0-.22-.27,13.16,13.16,0,0,0-2.17-.29,6.33,6.33,0,0,0-5.42,2.83,12.74,12.74,0,0,0-2,7.42v11.39h0a.26.26,0,0,0,.26.26h6.56a.26.26,0,0,0,.25-.26v-9.95c0-1.13.17-2.49,1-2.49a3.71,3.71,0,0,1,1.36.42.3.3,0,0,0,.26,0A.29.29,0,0,0,430.8,249.85Zm-3.24,12h-6V250.68a12.15,12.15,0,0,1,1.89-7.11,5.73,5.73,0,0,1,5-2.6,11.81,11.81,0,0,1,1.87.24v8.2a3.59,3.59,0,0,0-1.21-.3c-1,0-1.52,1-1.52,3Z" fill="#e31b23"/><path d="M439.54,240.47a7.65,7.65,0,0,0-6.28,3.25,12.71,12.71,0,0,0-2.54,7.9,12.53,12.53,0,0,0,2.53,8,7.67,7.67,0,0,0,6.36,3.22,9.06,9.06,0,0,0,1.72-.19.25.25,0,0,0,.21-.21h6.56a.27.27,0,0,0,.27-.26V251.83a13.48,13.48,0,0,0-2.36-8.26A7.69,7.69,0,0,0,439.54,240.47Zm1.72,11.93v1.12a.17.17,0,0,0-.1,0,4.13,4.13,0,0,1-1.67.49,1.31,1.31,0,0,1-1.09-.58,2.94,2.94,0,0,1,.06-3.25,1.43,1.43,0,0,1,1.15-.65,1.32,1.32,0,0,1,1.17.77A3.94,3.94,0,0,1,441.26,252.4Zm6.58,9.42h-6v-9.48a4.53,4.53,0,0,0-.55-2.39,1.84,1.84,0,0,0-1.62-1,2,2,0,0,0-1.58.86,3.2,3.2,0,0,0-.62,1.93,3.08,3.08,0,0,0,.54,1.93,1.84,1.84,0,0,0,1.52.8,4,4,0,0,0,1.52-.37v8a8.25,8.25,0,0,1-1.4.18,7.16,7.16,0,0,1-5.93-3,13.16,13.16,0,0,1,0-15.21,7.12,7.12,0,0,1,5.85-3.07h0a7.19,7.19,0,0,1,6,2.88,13,13,0,0,1,2.25,7.95Z" fill="#e31b23"/><path d="M467.58,251.53a.24.24,0,0,0-.2-.08l-3.15.14c-1.08,0-2.17.09-3.25.15a.26.26,0,0,0-.25.19c-.36,1.35-.91,2-1.63,2a1.49,1.49,0,0,1-1.26-.66,2.78,2.78,0,0,1-.51-1.74,2.68,2.68,0,0,1,.49-1.71,1.4,1.4,0,0,1,1.18-.62,1.89,1.89,0,0,1,1.57,1.16.26.26,0,0,0,.25.14l6.5-.3a.26.26,0,0,0,.2-.1.36.36,0,0,0,.06-.2,12.49,12.49,0,0,0-3-6.95,7.4,7.4,0,0,0-5.62-2.56,7.61,7.61,0,0,0-6.22,3.25,12.26,12.26,0,0,0-2.57,7.77,12.85,12.85,0,0,0,2.54,8,7.62,7.62,0,0,0,6.3,3.33,7.45,7.45,0,0,0,5.94-3,13.29,13.29,0,0,0,2.71-8A.25.25,0,0,0,467.58,251.53ZM459,262.26a7.12,7.12,0,0,1-5.87-3.11,12.2,12.2,0,0,1-2.44-7.7,11.83,11.83,0,0,1,2.46-7.44,7.14,7.14,0,0,1,5.8-3h0a6.89,6.89,0,0,1,5.25,2.39,11.81,11.81,0,0,1,2.82,6.37l-6,.27a2.28,2.28,0,0,0-1.94-1.29,2,2,0,0,0-1.63.83,3.17,3.17,0,0,0-.6,2,3.3,3.3,0,0,0,.62,2.06,2,2,0,0,0,1.69.87c.95,0,1.65-.76,2.11-2.24l3.08-.14,2.84-.13a12.65,12.65,0,0,1-2.57,7.43A6.89,6.89,0,0,1,459,262.26Z" fill="#e31b23"/><g id="5979532c-318c-4a69-8b11-aae43c1bd6d2" data-name="Reg"><path d="M460.78,236a3.08,3.08,0,0,1,.41-1.53,3,3,0,0,1,1.12-1.13,3.09,3.09,0,0,1,1.54-.41,3,3,0,0,1,1.53.41,2.9,2.9,0,0,1,1.13,1.12,3,3,0,0,1,.41,1.54,3,3,0,0,1-1.5,2.64,3.09,3.09,0,0,1-4.24-1.12A3,3,0,0,1,460.78,236Zm.43,0a2.67,2.67,0,0,0,1.33,2.29,2.65,2.65,0,0,0,2.63,0,2.7,2.7,0,0,0,1-1,2.67,2.67,0,0,0,.35-1.33,2.56,2.56,0,0,0-.35-1.32,2.68,2.68,0,0,0-1-1,2.58,2.58,0,0,0-1.33-.36,2.66,2.66,0,0,0-1.32.35,2.7,2.7,0,0,0-1,1A2.52,2.52,0,0,0,461.21,236Zm3.89-.74a1,1,0,0,1-.18.58,1,1,0,0,1-.48.37l1,1.61h-.69l-.84-1.44h-.55v1.44h-.61v-3.64h1.07a1.5,1.5,0,0,1,1,.27A1,1,0,0,1,465.1,235.27Zm-1.77.61h.44a.74.74,0,0,0,.52-.17.54.54,0,0,0,.2-.43.52.52,0,0,0-.18-.44,1,1,0,0,0-.55-.13h-.43Z" fill="#fff"/></g></g></g></svg>